<?xml version="1.0" encoding="UTF-8"?>
<!DOCTYPE svg PUBLIC "-//W3C//DTD SVG 1.1//EN" "http://www.w3.org/Graphics/SVG/1.1/DTD/svg11.dtd">
<!-- Creator: CorelDRAW -->
<svg xmlns="http://www.w3.org/2000/svg" xml:space="preserve" width="61.9204mm" height="72.6699mm" version="1.1" style="shape-rendering:geometricPrecision; text-rendering:geometricPrecision; image-rendering:optimizeQuality; fill-rule:evenodd; clip-rule:evenodd"
viewBox="0 0 253.01 296.93"
 xmlns:xlink="http://www.w3.org/1999/xlink"
 xmlns:xodm="http://www.corel.com/coreldraw/odm/2003">
 <defs>
  <style type="text/css">
   <![CDATA[
    .str0 {stroke:#373435;stroke-width:0.31;stroke-miterlimit:2.61313}
    .fil0 {fill:none}
    .fil2 {fill:#E93438}
    .fil1 {fill:#282829}
   ]]>
  </style>
 </defs>
 <g id="Layer_x0020_1">
  <metadata id="CorelCorpID_0Corel-Layer"/>
  <path class="fil0 str0" d="M116.58 274.92c-0.83,-1.58 -1.68,-3.18 -2.39,-4.85 -1.28,-3.02 -3.36,-7.7 -3.97,-11.04 4.73,1.17 8.38,2.45 13.71,3.39 0.35,2.83 -1.92,4.46 -0.4,12.12 0.72,3.65 1.81,8.36 1.46,12.13 -1.64,-4.3 -4.98,-13.56 -7.45,-16.54 0.12,3.3 1.58,6.37 2.12,9.56 -0.55,-0.4 -0.17,-0.06 -0.63,-0.57l-2.44 -4.19zm9.93 -14.58c-7.06,0.02 -14.72,-1.18 -19.8,-5.64 -4.03,-3.54 -6.64,-12.11 -6.85,-19.48 1.33,2.34 1.76,12.19 8.32,17.66 4.06,3.38 11.43,5.51 18.33,5.59 6.9,-0.08 14.27,-2.21 18.33,-5.59 6.57,-5.48 6.99,-15.32 8.32,-17.66 -0.21,7.37 -2.82,15.94 -6.85,19.48 -5.08,4.46 -12.74,5.65 -19.8,5.64zm0 -8.45c-6.04,0.06 -12.11,-1.23 -14.87,-4.21 -3.1,-3.34 -3.07,-9.79 -1.29,-13.44 0.11,-0.23 0.23,-0.43 0.4,-0.63 0.51,-0.62 -0.06,-0.12 0.57,-0.43 0.61,1.93 0.96,3.41 1.72,5.17 0.71,1.64 1.61,3.14 2.1,4.78 1.79,-0.49 0.95,-1.08 3.08,-1.26l1.41 2.24c1.61,-0.67 1.18,-1.09 3.19,-1.02 0.51,0.7 0.98,1.51 1.56,2.16 1.47,-0.61 1.16,-0.97 2.13,-1.54 0.97,0.57 0.67,0.93 2.13,1.54 0.58,-0.65 1.05,-1.45 1.56,-2.16 2.01,-0.07 1.59,0.35 3.19,1.02l1.41 -2.24c2.12,0.18 1.29,0.77 3.08,1.26 0.49,-1.64 1.39,-3.14 2.1,-4.78 0.76,-1.76 1.11,-3.25 1.72,-5.17 0.63,0.31 0.06,-0.18 0.57,0.43 0.16,0.2 0.29,0.4 0.4,0.63 1.78,3.65 1.81,10.1 -1.29,13.44 -2.76,2.98 -8.83,4.27 -14.87,4.21zm-9.36 -31.66c-8.02,0.97 -13.63,-6.13 -16.49,-10 -3.22,-4.34 -7.25,-12.5 -6.96,-19.4 1.58,0.57 2.34,2.21 3.76,3.24 -0.93,-1.65 -3.89,-4.45 -2.78,-6.6 0.87,-0.25 0.62,0.03 1.41,0.66 0.7,0.56 0.99,0.69 1.6,1.21 0.98,0.85 1.8,1.76 2.43,2.46 -0.34,-2.03 -3.06,-4.39 -4.14,-6.06 0.98,-3.56 2.71,-3.8 6.68,-3.14 3.03,0.5 5.56,1.8 7.06,3.34 6.64,6.84 5.04,11.43 9.76,10.78 -0.74,-0.77 -5.22,-8.78 -5.56,-10.26 4.67,2.11 6.91,10.47 9.7,11.49 -0.98,-4.02 -7.21,-10.48 -9.4,-12.7 -4.81,-4.89 -5.53,-6.32 -14.73,-6.62 0.54,-2.39 2.54,-6.83 3.55,-9.44 0.94,-2.43 2.33,-7.62 4.12,-8.89 1.65,0.54 3.38,1.9 4.31,3.27l-3.42 -0.8 4.39 2.34c-0.88,0.01 -1.73,-0.09 -2.54,-0.07l-1.78 0.38c7.74,3.64 8.66,2.09 14.96,9.63 0.06,-0.07 0.12,-0.18 0.14,-0.23 0.03,-0.05 0.11,-0.17 0.13,-0.22l0.34 -0.9 2.5 4.06c0.11,-0.1 0.22,-0.21 0.32,-0.32 0.1,0.11 0.2,0.22 0.32,0.32l2.5 -4.06 0.34 0.9c0.03,0.06 0.11,0.18 0.13,0.22 0.03,0.05 0.09,0.16 0.14,0.23 6.3,-7.54 7.22,-5.99 14.96,-9.63l-1.78 -0.38c-0.81,-0.02 -1.66,0.08 -2.54,0.07l4.39 -2.34 -3.42 0.8c0.93,-1.37 2.66,-2.73 4.31,-3.27 1.79,1.28 3.18,6.46 4.12,8.89 1.01,2.61 3.01,7.05 3.55,9.44 -9.2,0.3 -9.92,1.73 -14.73,6.62 -2.19,2.23 -8.42,8.68 -9.4,12.7 2.79,-1.02 5.03,-9.38 9.7,-11.49 -0.34,1.48 -4.82,9.49 -5.56,10.26 4.72,0.65 3.12,-3.95 9.76,-10.78 1.5,-1.54 4.04,-2.84 7.06,-3.34 3.97,-0.66 5.7,-0.42 6.68,3.14 -1.08,1.67 -3.8,4.03 -4.14,6.06 0.64,-0.7 1.45,-1.61 2.43,-2.46 0.61,-0.53 0.9,-0.66 1.6,-1.21 0.79,-0.62 0.54,-0.91 1.41,-0.66 1.11,2.15 -1.85,4.95 -2.78,6.6 1.42,-1.03 2.18,-2.67 3.76,-3.24 0.29,6.9 -3.75,15.06 -6.96,19.4 -2.86,3.86 -8.47,10.97 -16.49,10 2.85,-2.34 4.7,-3 6.9,-6.08 1.63,-2.28 3.67,-6.82 3.13,-10.07 -0.4,-2.37 -1.28,-2.73 -3.17,-3.42 -1.59,-0.58 -3,-1.46 -4.51,-2.07 -4.84,-1.94 -7.38,0.79 -11.37,0.62 -0.11,-0 -0.22,-0.01 -0.33,-0.02 -0.11,0.01 -0.22,0.01 -0.33,0.02 -3.99,0.18 -6.53,-2.55 -11.37,-0.62 -1.51,0.61 -2.92,1.48 -4.51,2.07 -1.89,0.7 -2.78,1.05 -3.17,3.42 -0.54,3.25 1.49,7.79 3.13,10.07 2.21,3.08 4.06,3.74 6.9,6.08zm-43.69 -26.61c-0.06,-0.06 -0.16,-0.02 0,0zm106.11 0c0.06,-0.06 0.16,-0.02 0,0zm-71.39 -43.82c-15.18,-15.18 -11.81,-13.29 -21.28,-29.92 -2.7,-4.75 -4.68,-5.89 -9.01,-8.63l-1.58 -1.37 5.19 0.33c-0.81,-0.91 -2.25,-2.04 -3.03,-2.9 1.85,0.02 5.51,1.87 6.81,2.6 -0.91,-3.34 -4.2,-5.94 -5.55,-8.94l2.7 0.5c-1.61,-2.69 -6.13,-4.19 -9.15,-4.32 -3.82,-0.16 -9.49,1.57 -10.79,2.51l8.26 1.76c-1.23,0.64 -3.24,0.81 -4.8,1.25 -1.73,0.49 -2.99,1.15 -4.54,1.66 1.29,1.42 4.56,1.41 6.24,1.94 -1.5,0.54 -5.55,1.16 -7.31,1.6 1.14,0.91 6.07,2.16 7.2,2.27 -0.68,0.05 -1.25,-0 -1.87,0.04 -0.18,0.01 -0.88,0.08 -1.04,0.12l-0.94 0.39c-0.09,0.04 -0.2,0.11 -0.29,0.18 4.89,0.43 9.3,1.68 13.13,3.81 2.96,1.65 7.99,4.24 9.47,7.27 -0.76,-0.81 -2.22,-1.79 -3.47,-2.34 1.14,1.89 3.43,2.87 4.86,5.26 -1.29,-0.78 -4.23,-2.95 -5.36,-3.38 1.19,0.86 1.91,1.82 2.88,2.81 2.39,2.45 6.6,7.24 7.78,9.89 -4.01,-2.38 -9.97,-12.3 -17.25,-13.72 3.81,2.72 8.27,5.48 10.53,8.81 -1.5,-0.78 -3,-1.96 -4.91,-3.2 -1.73,-1.12 -3.25,-2.34 -5.14,-3.51 -2.76,-1.71 -8.41,-4.85 -12.37,-5.06l2.65 2.32c2.31,1.8 6.62,4.68 8.11,7.16 -2.58,-0.06 -10.84,-1.49 -13,-2.25 -2.02,-0.72 -8.41,-5.12 -9.07,-6.38 1.45,-0.48 4.28,-0.33 5.45,-1.09 -2.54,-1.23 -5.4,-2.41 -8.99,-2.16 -3.99,0.27 -5.87,1.77 -8.85,2.42 1.83,1.35 4.92,0.39 6.97,1.46 -1.12,0.78 -6.67,1.23 -8.87,2.71 2.66,-0.1 7.68,-0.65 9.86,0.41 -0.86,0.35 -4.89,0.54 -6.29,0.8 -2,0.38 -3.76,0.85 -5.5,1.5l6.05 0.05c-1.24,0.6 -2.08,0.74 -3.06,1.48 3.67,-0.11 5.6,-0.14 8.78,0.88 -1.24,1.05 -6.27,2.47 -7.78,2.92l1.62 0.78c-2.57,0.86 -4.75,3.33 -6.94,4.92 3,-0.51 6.13,-2.42 10.08,-1.81 -3.19,1.38 -7.77,2.07 -10.23,3.91 4.92,-1.16 9.36,-1.66 14.94,-0.96 -1.3,1.05 -0.42,0.46 -1.99,0.91 -2.28,0.65 -5.39,1.1 -7.18,2.28l5.15 -0.67c-1.27,0.74 -2.49,1.09 -3.82,1.88 -0.67,0.39 -1.14,0.71 -1.68,1.07l-1.73 1.56c2.87,-0.59 5.98,-1.67 9.3,-0.95 -4.75,2.52 -6.34,2.52 -9.41,6.29 2.21,-0.6 5.85,-2.34 8.7,-1.24 -1.08,0.71 -9.82,4.42 -12.91,7.61 4.71,-0.34 5.79,-2.08 14.33,-1.92 -0.64,0.77 -1.8,1.16 -2.92,1.65 -1.07,0.47 -1.79,1 -2.72,1.51 1.4,-0 2.36,-0.54 4.01,-0.53 1.62,0 3.22,0.02 4.84,0.02 -1.24,1.24 -2.87,1.67 -3.78,3.35l5.22 -0.31 -1.58 3.33 5.82 -0.34 -1.15 1.57c-0.65,0.77 -0.73,0.89 -1.08,1.83l5.04 -1.06c-0.06,0.56 -0.63,1.1 -0.52,1.56l3.46 -0.36c-1.11,1.38 -3.17,3.73 -3.97,6.02 1.58,-0.51 1.87,-0.9 3.67,-1.1l-0.36 5.53c0.01,0 0.01,0 0.02,0.01 0.06,-0.02 0.19,-0.04 0.43,-0.04 0.63,-0.01 -0.03,-0.27 0.71,0.05l-0.18 3.77 1.23 -1.63 0.51 4.62c0.94,-0.81 0.4,-0.29 0.96,-1.48l0.55 4.07c0.83,-0.45 0.46,-0.57 1.02,-0.36l1.37 7.67c0.71,-1.53 1.44,-3.61 2.51,-4.74 0.24,1.56 0.57,2.85 0.92,4.32 0.12,0.51 0.31,1.72 0.64,2.02 0.07,0.07 0.13,0.13 0.16,0.17 0.01,-0.09 0.07,-0.22 0.19,-0.36 0.26,-0.32 0.25,-0.46 0.19,-0.51 0.04,0 0.08,0.01 0.15,0.01l2.35 4.88 0.73 -2.57c1.68,1.88 1.42,4.53 2.81,6.57 0.41,-0.79 0.48,-1.45 1.1,-2.06l2.91 8.24 0.18 -4.22c1.69,1.3 4.01,5.82 5.35,8.42 4.19,8.13 8.09,24.24 9.36,33.22 1.78,12.57 3.36,21.7 11.06,31.47 1.63,2.07 5.1,5.91 7.6,6.81l-0.64 -3.94c3.04,1.62 8.34,13.73 8.93,16.25 0.4,-0.26 0.79,-0.77 1.18,-1.45 0.39,0.68 0.78,1.19 1.18,1.45 0.59,-2.52 5.89,-14.62 8.93,-16.25l-0.64 3.94c2.51,-0.91 5.97,-4.75 7.6,-6.81 7.7,-9.76 9.28,-18.89 11.06,-31.47 1.27,-8.98 5.17,-25.09 9.36,-33.22 1.34,-2.6 3.66,-7.12 5.35,-8.42l0.18 4.22 2.91 -8.24c0.62,0.61 0.69,1.27 1.1,2.06 1.39,-2.04 1.13,-4.69 2.81,-6.57l0.73 2.57 2.35 -4.88c0.06,-0 0.11,-0.01 0.15,-0.01 -0.05,0.06 -0.07,0.2 0.19,0.51 0.12,0.15 0.18,0.27 0.19,0.36 0.04,-0.05 0.09,-0.11 0.16,-0.17 0.33,-0.31 0.52,-1.52 0.64,-2.02 0.35,-1.48 0.68,-2.76 0.92,-4.32 1.07,1.13 1.8,3.21 2.51,4.74l1.37 -7.67c0.57,-0.22 0.2,-0.1 1.02,0.36l0.55 -4.07c0.55,1.19 0.01,0.66 0.96,1.48l0.51 -4.62 1.23 1.63 -0.18 -3.77c0.73,-0.32 0.07,-0.06 0.71,-0.05 0.23,0 0.36,0.02 0.43,0.04 0.01,-0 0.01,-0 0.02,-0.01l-0.36 -5.53c1.8,0.19 2.09,0.59 3.67,1.1 -0.8,-2.29 -2.86,-4.64 -3.97,-6.02l3.46 0.36c0.11,-0.46 -0.46,-1 -0.52,-1.56l5.04 1.06c-0.35,-0.94 -0.44,-1.06 -1.08,-1.83l-1.15 -1.57 5.82 0.34 -1.58 -3.33 5.22 0.31c-0.9,-1.68 -2.54,-2.11 -3.78,-3.35 1.63,0 3.22,-0.02 4.84,-0.02 1.65,-0 2.61,0.53 4.01,0.53 -0.93,-0.51 -1.64,-1.04 -2.72,-1.51 -1.11,-0.49 -2.28,-0.88 -2.92,-1.65 8.55,-0.17 9.63,1.57 14.33,1.92 -3.08,-3.19 -11.83,-6.9 -12.91,-7.61 2.85,-1.1 6.49,0.64 8.7,1.24 -3.07,-3.77 -4.66,-3.77 -9.41,-6.29 3.33,-0.71 6.43,0.36 9.3,0.95l-1.73 -1.56c-0.54,-0.36 -1.02,-0.67 -1.68,-1.07 -1.33,-0.79 -2.55,-1.14 -3.82,-1.88l5.15 0.67c-1.8,-1.18 -4.9,-1.63 -7.18,-2.28 -1.57,-0.45 -0.69,0.15 -1.99,-0.91 5.58,-0.7 10.02,-0.2 14.94,0.96 -2.46,-1.84 -7.04,-2.53 -10.23,-3.91 3.95,-0.61 7.08,1.3 10.08,1.81 -2.19,-1.59 -4.38,-4.06 -6.94,-4.92l1.62 -0.78c-1.51,-0.46 -6.54,-1.87 -7.78,-2.92 3.19,-1.01 5.11,-0.99 8.78,-0.88 -0.97,-0.75 -1.82,-0.88 -3.06,-1.48l6.05 -0.05c-1.74,-0.65 -3.5,-1.12 -5.5,-1.5 -1.4,-0.26 -5.43,-0.45 -6.29,-0.8 2.19,-1.06 7.2,-0.51 9.86,-0.41 -2.21,-1.48 -7.76,-1.93 -8.87,-2.71 2.05,-1.07 5.14,-0.11 6.97,-1.46 -2.98,-0.65 -4.86,-2.15 -8.85,-2.42 -3.6,-0.24 -6.45,0.93 -8.99,2.16 1.17,0.76 4,0.61 5.45,1.09 -0.66,1.26 -7.05,5.66 -9.07,6.38 -2.15,0.76 -10.42,2.19 -13,2.25 1.49,-2.48 5.79,-5.36 8.11,-7.16l2.65 -2.32c-3.96,0.21 -9.61,3.35 -12.37,5.06 -1.89,1.17 -3.41,2.39 -5.14,3.51 -1.91,1.24 -3.4,2.43 -4.91,3.2 2.26,-3.33 6.72,-6.09 10.53,-8.81 -7.28,1.42 -13.24,11.34 -17.25,13.72 1.18,-2.65 5.39,-7.44 7.78,-9.89 0.97,-1 1.7,-1.96 2.88,-2.81 -1.12,0.43 -4.06,2.6 -5.36,3.38 1.43,-2.39 3.72,-3.37 4.86,-5.26 -1.25,0.55 -2.71,1.53 -3.47,2.34 1.48,-3.03 6.51,-5.62 9.47,-7.27 3.83,-2.13 8.24,-3.39 13.13,-3.81 -0.09,-0.07 -0.21,-0.14 -0.29,-0.18l-0.94 -0.39c-0.15,-0.04 -0.86,-0.1 -1.04,-0.12 -0.62,-0.04 -1.19,0.01 -1.87,-0.04 1.13,-0.11 6.06,-1.36 7.2,-2.27 -1.76,-0.44 -5.81,-1.07 -7.31,-1.6 1.68,-0.53 4.95,-0.52 6.24,-1.94 -1.55,-0.5 -2.81,-1.17 -4.54,-1.66 -1.57,-0.44 -3.57,-0.62 -4.8,-1.25l8.26 -1.76c-1.3,-0.94 -6.97,-2.68 -10.79,-2.51 -3.02,0.13 -7.55,1.63 -9.15,4.32l2.7 -0.5c-1.35,3 -4.64,5.6 -5.55,8.94 1.3,-0.74 4.96,-2.59 6.81,-2.6 -0.78,0.85 -2.22,1.99 -3.03,2.9l5.19 -0.33 -1.58 1.37c-4.33,2.74 -6.31,3.89 -9.01,8.63 -9.46,16.63 -6.1,14.74 -21.28,29.92 -1.25,1.25 -4.06,3.99 -6,3.55 -2.96,-4.12 1,-15.11 3.11,-18 -0.08,2.7 -1.46,6.03 -1.7,9.34l0.83 -1.44c1.11,-2.97 2.35,-7.77 4.41,-9.84l-2.22 7.11c1.23,-3.29 4.01,-6.48 4.79,-10.95 -2.08,0.67 -4.51,2.27 -5.66,3.59 -3.46,3.95 -5.92,14.5 -6.41,19.91 -3.06,-6.01 -0.49,-10.77 0.25,-16.92 -0.32,0.32 -0.21,0.17 -0.52,0.67 -0.19,0.31 -0.19,0.33 -0.36,0.73 -1.57,3.55 -2.5,7.15 -2.83,11.1 -0.96,-11.77 4.41,-15.95 4.6,-24.05 -1.42,1.48 -4.2,4.34 -5.27,6.04 0.45,-1.68 1.56,-6.2 1.32,-7.97 -0.07,0.68 -1.63,2.7 -2.42,3.27l-0.35 -6.4c-0.53,1.32 -1.41,3.13 -2.03,4.83 -0.54,1.48 -1.2,4.46 -1.71,5.56 -0.04,-0.29 -0.1,-0.59 -0.16,-0.92 -0.06,0.32 -0.12,0.63 -0.16,0.92 -0.51,-1.1 -1.17,-4.08 -1.71,-5.56 -0.63,-1.7 -1.5,-3.51 -2.03,-4.83l-0.35 6.4c-0.79,-0.57 -2.35,-2.59 -2.42,-3.27 -0.24,1.77 0.87,6.29 1.32,7.97 -1.06,-1.7 -3.85,-4.56 -5.27,-6.04 0.19,8.11 5.56,12.29 4.6,24.05 -0.33,-3.95 -1.25,-7.55 -2.83,-11.1 -0.18,-0.4 -0.17,-0.42 -0.36,-0.73 -0.31,-0.5 -0.2,-0.35 -0.52,-0.67 0.73,6.15 3.31,10.91 0.25,16.92 -0.49,-5.41 -2.95,-15.96 -6.41,-19.91 -1.16,-1.32 -3.59,-2.91 -5.66,-3.59 0.78,4.46 3.56,7.66 4.79,10.95l-2.22 -7.11c2.06,2.07 3.3,6.87 4.41,9.84l0.83 1.44c-0.24,-3.31 -1.62,-6.64 -1.7,-9.34 2.11,2.9 6.07,13.88 3.11,18 -1.94,0.44 -4.75,-2.3 -6,-3.55zm9.57 74.79c0.21,2.16 -0.07,3.18 -1.17,4.36 -2.36,-0.3 -3.46,-3.53 -3.84,-5.9 1.4,0.28 4.07,0.91 5.02,1.55zm8.76 -15.56c-1.67,0.08 -3.63,-0.66 -7.85,-2.61 -6.84,-3.15 -7.13,-0.12 -8.46,-0.57 -1.74,-4.18 2.44,-4.99 5.93,-4.53 3.18,0.42 5.76,2.07 8.7,2.41 0.57,0.07 1.13,0.07 1.68,0.02 0.55,0.05 1.1,0.04 1.68,-0.02 2.93,-0.33 5.52,-1.98 8.7,-2.41 3.49,-0.47 7.67,0.35 5.93,4.53 -1.33,0.45 -1.62,-2.58 -8.46,0.57 -4.22,1.95 -6.18,2.69 -7.85,2.61zm-0.51 -35.95c-1.59,-2.52 -1.82,-2.81 -3.97,-4.96 -7.37,-7.39 -12.31,-7.2 -14.21,-12.2 3.36,-0.04 7.43,1.02 11.47,1.05 3.62,0.02 5.9,2.93 5.96,6.59 -2.85,-0.81 -4.9,-2.16 -8.39,-2.75 1.61,1.6 3.44,1.93 7.26,6.26 1.17,1.32 0.85,1.51 2.08,2.18 0.11,-0.06 0.21,-0.14 0.32,-0.21 0.11,0.08 0.21,0.15 0.32,0.21 1.23,-0.67 0.91,-0.86 2.08,-2.18 3.83,-4.33 5.66,-4.66 7.26,-6.26 -3.49,0.59 -5.54,1.95 -8.39,2.75 0.06,-3.67 2.34,-6.57 5.96,-6.59 4.03,-0.02 8.11,-1.09 11.47,-1.05 -1.89,5 -6.83,4.81 -14.21,12.2 -2.15,2.16 -2.38,2.44 -3.97,4.96 -0.17,-0.12 -0.34,-0.27 -0.51,-0.45 -0.17,0.18 -0.34,0.34 -0.51,0.45zm-16.58 87.22c1.04,3.69 3.32,11.74 3.51,14.92 -1.15,-1.76 -3.92,-6.03 -4.66,-8.05l1.02 3.34c-1.99,-1.98 -5.21,-11.09 -5.11,-14.92l2.36 5.89 -0.45 -4.67c2.29,0.63 2.66,1.09 3.33,3.48zm18.62 26.37c-0.35,-3.77 0.74,-8.48 1.46,-12.13 1.51,-7.66 -0.75,-9.29 -0.4,-12.12 5.32,-0.93 8.97,-2.21 13.71,-3.39 -0.62,3.34 -2.7,8.03 -3.97,11.04 -0.71,1.67 -1.55,3.27 -2.39,4.85l-2.44 4.19c-0.46,0.51 -0.07,0.17 -0.63,0.57 0.54,-3.19 2,-6.26 2.12,-9.56 -2.47,2.98 -5.81,12.25 -7.45,16.54zm12.05 -11.45c0.2,-3.18 2.47,-11.23 3.51,-14.92 0.67,-2.39 1.05,-2.85 3.33,-3.48l-0.45 4.67 2.36 -5.89c0.09,3.83 -3.12,12.94 -5.11,14.92l1.02 -3.34c-0.74,2.02 -3.51,6.28 -4.66,8.05zm-48.52 -70.78c1.94,5.57 6.13,19.91 7.09,25.41 -2.23,-1.12 -4.38,-8.22 -5.57,-11.02 -1.66,-3.9 -3.08,-7.58 -5.02,-11.21 -2.92,-5.45 -9.3,-16.78 -7.71,-24.44 2.32,0.61 3.01,2.63 4.03,4.58l7.17 16.68zm56.71 25.37c-2.56,-1.5 -2.38,-9.23 -1.87,-10.29l4.29 -5.05c0.23,-0.32 0.52,-0.79 0.72,-1 1.08,-1.14 0.1,-0.36 1.24,-0.91 -0.09,4.72 -0.21,15.92 -4.38,17.25zm13.18 -25.37l7.17 -16.68c1.03,-1.95 1.71,-3.97 4.03,-4.58 1.59,7.67 -4.79,18.99 -7.71,24.44 -1.94,3.62 -3.36,7.3 -5.02,11.21 -1.19,2.8 -3.34,9.91 -5.57,11.02 0.96,-5.5 5.15,-19.84 7.09,-25.41zm-54.84 15.08c0.52,1.06 0.69,8.79 -1.87,10.29 -4.18,-1.33 -4.29,-12.53 -4.38,-17.25 1.14,0.55 0.15,-0.23 1.24,0.91 0.2,0.21 0.49,0.68 0.72,1l4.29 5.05zm-29.41 -69.34c0.08,-0.33 0.35,0.22 0,0zm23.77 7.4c-0.92,2.55 -4.18,2.82 -5.98,4.74l4.39 0.41c-1.4,0.52 -2.03,1.72 -4.43,2.11 -2.34,0.38 -4.39,0.18 -6.66,0.38l5.58 1c-2.87,0.68 -3.52,0.99 -6.95,0.65 -3.93,-0.4 -0.6,1 -7.09,0.15 -13.39,-1.75 -8.97,-12.66 -25.06,-15.77 -1.19,-0.23 -2.46,-0.34 -3.67,-0.38l-3.2 -0.31c-0.04,-0.1 -0.16,-0.06 -0.23,-0.11 3.46,-2.04 13.95,-3.27 15.06,-3.81 -2.1,-1.44 -6.56,-1.98 -7.65,-2.77l1.45 -0.39c0.07,-0.03 0.23,-0.02 0.28,-0.14 0.05,-0.13 0.19,-0.09 0.27,-0.12l-3.81 -1.42c1.36,-0.98 4.44,-0.39 6.39,-0.45 -1.44,-0.98 -4.08,-2.81 -5.68,-3.55 2.82,-0.48 3.85,-0.39 6.46,-0.05 -1.09,-2.06 -2.8,-2.44 -4.44,-4.36l7.18 0.42c-1.1,-2.06 -2.28,-2.12 -3.31,-3.62 1.09,-0.17 3.4,-0.28 4.21,-0.71 0,-0 1.94,-1.95 3.65,-0.44 0.45,0.4 -0.41,0.07 -0.8,1.15 1.25,0.84 3.07,2.79 3.75,4.48l-2.37 -0.91c0.71,1.28 0.98,1.25 1.83,2.28l-3.83 -0.82c1.36,1.43 2.31,2.02 3.69,3.62 1.08,1.24 2.16,2.82 3.25,3.91l-2 0.66c1.08,0.68 2.18,1.77 3.05,2.52l-0.78 0.12c-0.48,0.07 0.06,-0.29 -0.85,0.14 0.98,0.43 1.77,0.73 2.65,1.14l-0.98 0.35c-0.6,0.22 -0.37,0.04 -0.76,0.31l3.35 1.95c0.12,0.11 0.21,0.18 0.27,0.22 -0.01,0.05 -0.02,0.13 -0.02,0.23 0.01,0.45 -0.4,0.88 -0.51,0.93l3.08 1.28 -1.71 0.77 4.45 1.36 -2.36 1.24 4.68 -0.48 -1.3 0.85 3.63 -0.25c-1.62,0.7 -2.21,0.29 -3.55,1.65 11.9,3.54 9.86,0.34 17.39,-0.19zm1.47 -3.9c-11.38,3.32 -16.43,1.74 -22.51,-5.06 -2.33,-2.61 -3.74,-6.73 -5.27,-10.27 -4.15,-9.61 -4.54,-7.1 -5.94,-9.32 15.82,0.94 8.57,16.14 22.35,21.29 4.05,1.51 9.32,1.18 11.38,3.36zm67.17 22.26c-8.3,3.66 -7.79,8.35 -9.59,9.87 -2.85,-8.78 3.61,-11.18 11.27,-10.94 -0.61,0.66 0.19,0.01 -0.7,0.58 -0.24,0.15 -0.71,0.37 -0.98,0.49zm6.21 -25.76c-0.08,-0.33 -0.35,0.22 0,0zm22.42 1.07c-16.08,3.11 -11.67,14.02 -25.06,15.77 -6.49,0.85 -3.16,-0.55 -7.09,-0.15 -3.44,0.35 -4.08,0.03 -6.95,-0.65l5.58 -1c-2.27,-0.2 -4.32,0 -6.66,-0.38 -2.4,-0.39 -3.03,-1.59 -4.43,-2.11l4.39 -0.41c-1.79,-1.92 -5.05,-2.19 -5.98,-4.74 7.53,0.53 5.49,3.73 17.39,0.19 -1.35,-1.37 -1.93,-0.96 -3.55,-1.65l3.63 0.25 -1.3 -0.85 4.68 0.48 -2.36 -1.24 4.45 -1.36 -1.71 -0.77 3.08 -1.28c-0.11,-0.05 -0.52,-0.47 -0.51,-0.93 0,-0.1 -0.01,-0.18 -0.02,-0.23 0.07,-0.04 0.16,-0.11 0.27,-0.22l3.35 -1.95c-0.39,-0.27 -0.16,-0.09 -0.76,-0.31l-0.98 -0.35c0.88,-0.41 1.67,-0.71 2.65,-1.14 -0.91,-0.43 -0.37,-0.07 -0.85,-0.14l-0.78 -0.12c0.88,-0.76 1.97,-1.85 3.05,-2.52l-2 -0.66c1.09,-1.09 2.17,-2.66 3.25,-3.91 1.39,-1.6 2.33,-2.19 3.69,-3.62l-3.83 0.82c0.85,-1.04 1.12,-1 1.83,-2.28l-2.37 0.91c0.68,-1.7 2.5,-3.64 3.75,-4.48 -0.4,-1.08 -1.25,-0.76 -0.8,-1.15 1.71,-1.51 3.65,0.43 3.65,0.44 0.81,0.43 3.12,0.54 4.21,0.71 -1.03,1.5 -2.21,1.56 -3.31,3.62l7.18 -0.42c-1.64,1.92 -3.35,2.3 -4.44,4.36 2.61,-0.34 3.63,-0.42 6.46,0.05 -1.6,0.74 -4.23,2.57 -5.68,3.55 1.95,0.06 5.02,-0.53 6.39,0.45l-3.81 1.42c0.07,0.03 0.22,-0.01 0.27,0.12 0.05,0.12 0.21,0.11 0.28,0.14l1.45 0.39c-1.09,0.79 -5.55,1.33 -7.65,2.77 1.11,0.54 11.6,1.76 15.06,3.81 -0.07,0.05 -0.19,0.01 -0.23,0.11l-3.2 0.31c-1.22,0.04 -2.49,0.15 -3.67,0.38zm-25.15 -2.64c-6.08,6.8 -11.13,8.38 -22.51,5.06 2.06,-2.18 7.34,-1.85 11.38,-3.36 13.78,-5.15 6.53,-20.35 22.35,-21.29 -1.41,2.22 -1.8,-0.29 -5.94,9.32 -1.53,3.55 -2.94,7.67 -5.27,10.27zm-44.96 -2.37l-0.49 -9.77 -0.75 1.96c-0.18,0.7 -0.27,1.13 -0.38,1.74 -0.1,-0.61 -0.2,-1.04 -0.38,-1.74l-0.75 -1.96 -0.49 9.77c-0.36,-0.22 -1.02,0.14 -0.85,-1.12l-0.58 1.56c-0.91,-2.85 -3.99,-11.17 -4.19,-13.64 1.08,0.71 4.09,5.18 4.31,6.2l0.25 -10.64c1.53,1.78 2.11,4.79 2.68,7.51 0.57,-2.72 1.14,-5.73 2.68,-7.51l0.25 10.64c0.21,-1.02 3.23,-5.49 4.31,-6.2 -0.21,2.47 -3.28,10.79 -4.19,13.64l-0.58 -1.56c0.17,1.26 -0.49,0.89 -0.85,1.12zm-46.39 28.63c0.61,0.66 -0.19,0.01 0.7,0.58 0.24,0.15 0.71,0.37 0.98,0.49 8.3,3.66 7.79,8.35 9.59,9.87 2.85,-8.78 -3.61,-11.18 -11.27,-10.94zm18.67 -30.15c-4.51,1.29 -6.35,2.96 -10.35,-0.67 -2.64,-2.4 -3.92,-5.52 -3.46,-10.34l4.15 2.01c0.32,4.99 1.81,6.46 6.4,4.73 0.92,1.15 2.61,2.97 3.26,4.27zm62.58 -0.67c-4,3.64 -5.84,1.97 -10.35,0.67 0.65,-1.3 2.34,-3.12 3.26,-4.27 4.59,1.73 6.08,0.26 6.4,-4.73l4.15 -2.01c0.46,4.82 -0.82,7.94 -3.46,10.34zm-67.9 34.08c-4.24,-3.81 -9.07,-3.48 -11.42,-5.22 2.37,-0.18 9.13,-1.17 10.67,-0.97 3.73,0.5 3.64,4.17 2.12,7.19 -0.88,-0.39 -0.54,-0.26 -1.37,-1zm41.37 50.82c-1.11,-1.17 -1.38,-2.2 -1.17,-4.36 0.95,-0.64 3.62,-1.27 5.02,-1.55 -0.38,2.37 -1.48,5.6 -3.84,5.9zm32.92 -56.04c-2.35,1.74 -7.18,1.41 -11.42,5.22 -0.82,0.74 -0.48,0.61 -1.37,1 -1.53,-3.02 -1.61,-6.69 2.12,-7.19 1.54,-0.21 8.3,0.79 10.67,0.97zm-42.85 115.45c-0.17,-1.27 -0.14,-2.69 0,-4.13 0.14,1.44 0.17,2.86 0,4.13z"/>
  <path class="fil0 str0" d="M117.56 184.33c0.7,0.72 1.11,1.38 1.86,2.31l5.16 7.31c0.33,0.56 0.43,0.9 0.69,1.36 0.13,0.23 0.25,0.46 0.43,0.67 0.19,0.22 0.24,0.31 0.25,0.34 0.04,0.02 0.15,0.08 0.4,0.25 0.05,-0.11 0.11,-0.23 0.16,-0.34 0.05,0.11 0.11,0.23 0.16,0.34 0.25,-0.17 0.36,-0.23 0.4,-0.25 0.01,-0.03 0.06,-0.11 0.25,-0.34 0.18,-0.21 0.3,-0.44 0.43,-0.67 0.26,-0.46 0.36,-0.8 0.69,-1.36l5.16 -7.31c0.75,-0.92 1.16,-1.58 1.86,-2.31 2.23,-2.32 4.07,-4.64 6.19,-5.68 -6.07,0.94 -9.76,6.19 -12.26,11.39l-2.56 5.51c-0.07,-0.28 -0.17,-0.6 -0.31,-0.95 -0.13,0.35 -0.24,0.66 -0.31,0.95l-2.56 -5.51c-2.51,-5.2 -6.19,-10.45 -12.26,-11.39 2.13,1.05 3.96,3.36 6.19,5.68z"/>
  <path class="fil0 str0" d="M134.46 176.82c-2.23,2.67 -4.31,4.2 -5.59,8.94l2.69 -3.24c2.2,-2.67 7.98,-7.4 9.89,-7.28 -1.58,-0.19 -3.9,0.92 -5.28,1.55 -0.04,-0.06 -0.07,-0.16 -0.08,-0.19 -0.01,-0.03 -0.06,-0.15 -0.08,-0.19l-0.54 -0.97c1.44,-0.34 2.89,-1.72 5.99,-3.1 2.14,-0.95 4.29,-1.76 6.9,-2.16 -6.68,-4.04 -17.73,5.51 -18.97,11.24 1.13,-1.47 3.29,-4.3 5.28,-4.88 -0.06,0.1 -0.15,0.2 -0.2,0.27z"/>
  <path class="fil0 str0" d="M123.62 181.44c-1.24,-5.73 -12.28,-15.27 -18.97,-11.24 2.6,0.4 4.75,1.21 6.9,2.16 3.11,1.37 4.56,2.75 5.99,3.1l-0.54 0.97c-0.02,0.04 -0.06,0.16 -0.08,0.19 -0.01,0.03 -0.04,0.13 -0.08,0.19 -1.39,-0.63 -3.7,-1.74 -5.28,-1.55 1.9,-0.12 7.69,4.61 9.89,7.28l2.69 3.24c-1.28,-4.74 -3.36,-6.28 -5.59,-8.94 -0.06,-0.07 -0.15,-0.17 -0.2,-0.27 1.99,0.58 4.15,3.41 5.28,4.88z"/>
  <path class="fil0 str0" d="M161.4 236.51l-6.41 17.89c-2.39,6.22 -4.44,13.2 -6.25,17.78 3.3,-3.06 4.97,-7.68 7.75,-11.32 -0.16,3.96 -2.04,8.75 -2.81,12.3 2.22,-1.34 4.06,-4.63 5.41,-7.08 1.86,-3.37 2.1,-5.01 2.53,-9.34 0.63,-6.38 3.34,-13.89 3.49,-19.71 -0.38,0.73 -1.55,2.63 -1.85,3.25l0.53 -5.45 -2.91 6.2 0.69 -4.04c-0.01,-0.05 -0.06,-0.12 -0.07,-0.24 -0.01,-0.12 -0.04,-0.16 -0.08,-0.24z"/>
  <path class="fil0 str0" d="M165.92 241.48c-0.91,4.34 -0.99,8.96 -1.94,13.24 -0.94,4.19 -2.65,7.96 -3.24,12.08 4.61,-3.09 9.54,-20.72 10.43,-21.44l-0.12 2.8 0.94 -1.7c0.52,4.4 -1.71,9.11 -2.27,12.9 3.47,-2.88 7.11,-11.18 8.72,-15.78 2.17,-6.21 2.95,-12.85 2.47,-19.89 2.39,-6.47 3.06,-9.43 3.06,-11.46 0.12,-0 0.24,-0.01 0.37,-0.01 -0.04,7.04 1.68,18.03 -5.21,38.96 -0.61,1.86 -1.41,3.3 -1.8,5.18 1.82,-1.48 5.93,-8.27 7.85,-10.92 0.65,-0.9 2.02,-3.2 2.72,-3.56l-0.86 8.19c1.63,-1.3 4.25,-5.7 5.68,-8.15 1.46,-2.5 3.32,-6.65 5.17,-8.69l0.2 2.68c1.73,-1.64 5.23,-11.02 6.47,-11.6l-0.12 5.26c3.13,-3.96 5.03,-14.64 5.56,-15.7 0.39,-0.8 0.22,-0.52 0.75,-1.01l0.9 7.12c0.82,-1.12 0.95,-1.74 1.64,-2.76l0.32 5.25c1.09,-0.94 1.58,-2.46 1.77,-4.07 2.65,-2.46 2.58,-10 3.5,-11.99 0.46,0.78 0.83,2.8 0.83,3.75 0.77,-5.04 -0.29,-7.74 -0.77,-12.31 1.07,0.04 -0.56,-0.27 2.34,1.7 -0.1,-0.54 -0.23,-1.09 -0.39,-1.63 0.82,2.19 1.57,4.07 2.29,6.34 0.76,2.38 1.24,4.89 1.96,7.06 1.94,-4.52 0.87,-13.85 0.32,-18.75 1.32,1.27 3.88,6.75 5.11,8.82l0.66 0.9c0.03,-0.06 0.13,0.15 0.2,0.22 0.2,-1.79 0.47,-3.46 0.53,-5.33 0.06,-1.93 -0.19,-3.93 0.14,-5.82 1.59,1.19 2.43,2.41 3.76,3.09 -0.51,-2.95 -1.92,-4.57 -2.91,-6.86 1.56,0.48 1.48,0.8 2.7,1.26l-0.64 -2.74c5.3,0.8 6.13,2.44 9.02,3.16 -1.01,-3.5 -2.74,-7.52 -4.05,-10.74l0.01 -0 3.46 5.71 -1.81 -7.06c3.44,0.79 6.98,3.57 11.16,4.11 -0.9,-2.28 -10.44,-12.74 -11.42,-16.23 2.27,0.48 9.62,3.28 11.33,2.36 -1.18,-1.2 -1.53,-1.23 -2.6,-2.52 -0.89,-1.07 -1.57,-1.73 -2.4,-2.79 -3.9,-5 -5.06,-7.12 -8.35,-12.07 -1.27,-1.92 -2.66,-4.37 -5.92,-3.99 0.49,0.96 4.48,4.07 6.63,8.32 -0.08,-0.06 -0.17,-0.14 -0.22,-0.19l-2.27 -2.7c-5.94,-7.9 -5.15,-4.77 -7.53,-7.06 0.38,1.73 4.03,5.14 4.81,7.04 -2.2,-0.88 -5.93,-4.15 -8.58,-4.72 1.17,0.73 1.75,1.53 2.83,2.47 2.39,2.09 7.27,5.27 8.51,7.15 -2.88,-0.38 -7.53,-3.69 -10.1,-4.78 1.39,2.42 7.24,7.66 10.06,13.06 -1.37,-1 -8.41,-8.85 -11.3,-10.6 1.28,1.15 2.28,2.5 3.51,3.84 1.22,1.33 2.64,2.52 3.71,3.89 2.27,2.9 4.99,4.73 6.13,8.75 -1.88,-1.16 -6.17,-5.5 -8.99,-6.56 0.83,1.25 1.95,2.02 2.97,3.23 2.76,3.28 4.67,7.28 6.34,11.26 -2.51,-3.86 -4.86,-8.42 -9.39,-11.68 -1.27,-0.91 -2.75,-1.85 -3.94,-2.64 1.98,2.63 4.34,3.95 5.29,8.15 -2.52,-1.34 -6.02,-5.67 -9.48,-7.2 0.79,1.06 1.86,2.15 2.82,3.2 1.92,2.1 6.99,8.55 7.47,11.03 -1.1,-0.97 -2.13,-2.53 -3.34,-3.75 -1.16,-1.16 -2.23,-2.41 -3.59,-3.43 1.13,2.34 3.36,4.27 5.03,5.88 -1.41,-0.71 -0.5,-1.02 -2.84,-1.79 0.61,2.23 2.32,4.24 2.52,6.35 -2.02,-1.92 -8.46,-8.07 -10.3,-8.66 0.73,1.41 1.85,2.68 2.78,4.25 2.23,3.76 5.66,10.33 6.17,14.41 -1.03,-2.46 -4.25,-8.16 -6.31,-9.39l1.4 3.77c-0.48,-1.06 -6.4,-8.66 -7.76,-9.79 1.13,3.01 5.62,8.89 6.26,14.23l-1.04 -1.24c-0.23,-0.33 -0.38,-0.58 -0.7,-1.02 -1.97,-2.69 -4.42,-4.62 -4.75,-5.3 0.13,0.84 1.74,5.43 2.2,6.78 0.52,1.53 0.97,3.03 1.46,4.52 -1.33,-3.22 -3.23,-6.27 -4.79,-8.77 -1.09,-1.96 -6.07,-8.44 -7.57,-9.25 0.87,1.95 2.01,3.17 2.96,5.22 2.49,5.34 5.27,13.41 5.14,19.51l-1.87 -3.2c0.06,5.95 2.44,5.17 1.66,16.7 -0.02,-0.55 -0.06,-1.07 -0.1,-1.53 -0.36,-4.23 -4,-20.54 -7.71,-22.95l1.07 4.85c-1.14,-0.92 -3.7,-5.16 -5.4,-6.3 0.31,1.55 0.96,3.01 1.32,4.72 0.37,1.72 0.49,3.45 0.78,5.11l2.26 9.45c0.76,-0.98 0.67,-2.2 1.1,-3.22 0.21,2.73 -0.26,9.33 -2.33,11.12 -1.38,1.2 -0.17,1.07 -1.58,2.78l-0.28 -3.28 -2.28 6.11c-0.24,-0.4 -0.17,-0.12 -0.28,-0.83 -0.17,-1.15 0.78,-4.2 1.05,-5.4 2.38,-10.38 3.3,-10.02 0.2,-18.5 -0.05,0.08 -0.1,0.19 -0.12,0.25l-0.24 0.84c-0.02,0.12 0,1.17 -0,1.39 -1.74,-2.31 -2.6,-5.2 -4.39,-7.52l1.12 9.13 -1.48 -1.85c-0.07,0.1 -0.12,0.23 -0.16,0.32l-0.34 0.89c-0.01,0.05 -0.05,0.8 -0.06,0.9 -1.45,-2.35 -3.04,-4.71 -4.59,-6.99l0.37 10.07c-0.24,-0.29 -0.23,-0.25 -0.48,-0.74l-1.24 -3.81c-0.25,7.04 -0.55,6.77 1.06,13.74l1.45 -5c0.1,6.13 0.34,8.85 -1.57,14.75 -1.37,4.23 -2.84,8.58 -4.54,12.68 -0.04,-0.06 -0.08,-0.17 -0.09,-0.21 -0.37,-1.34 -0.04,-3.11 -0.1,-5.04l-2.2 4.47 1.3 -9.14c-0.64,1.39 -1.78,4.99 -2.27,6.5 0.01,-0.17 4.59,-21.43 4.71,-21.7 0.7,1.94 0.53,4.56 0.83,6.8 0.99,-2.59 1.54,-8.31 0.66,-11.08 -0.49,-1.53 -2.83,-7.47 -3.53,-8.39 -0.26,0.9 -0.36,5.34 -0.54,6.77 -0.28,2.34 -0.49,4.18 -1.08,6.42l-0.9 -4.32c-0.36,1.25 -0.5,2.62 -0.53,4.2 -0.16,0.01 -0.31,0.02 -0.44,0.02 -0.37,-2.07 -1.39,-3.28 -2.07,-7.13 -1.47,2.28 -2.8,10.54 -2.69,13.88 0.7,-2.34 0.64,-5.34 1.77,-7.55l-0.17 10.72c-0.74,1.62 -0.87,4.66 -1.35,6.56 -1.08,4.29 -4.27,13.3 -6.56,16.29 0.45,-4.79 2.71,-10.1 2.35,-15.52 -1.25,4.01 -3.04,9.85 -5.14,12.79 0.01,-9.47 3.26,-19.15 2.6,-24.09 0.03,3.93 -5.14,16.32 -6.71,23.74zm27.12 -10.54c0.25,-8.72 3.93,-15.89 4.74,-23.55 0.06,0.08 0.15,0.12 0.17,0.25l0.59 0.75c0.16,-0.89 0.29,-2.94 0.93,-3.6 1.46,4.93 1.1,11.24 -0.21,16.02 -0.63,2.3 -1.34,4.76 -2.23,6.78 -0.7,1.6 -1.91,5.25 -2.8,6.36l0.82 -5.37c-0.54,0.55 -0.44,0.57 -0.77,1.05l-1.23 1.31z"/>
  <path class="fil0 str0" d="M104.27 272.18c-1.82,-4.58 -3.86,-11.56 -6.25,-17.78l-6.41 -17.89c-0.04,0.08 -0.08,0.12 -0.08,0.24 -0.01,0.12 -0.06,0.19 -0.07,0.24l0.69 4.04 -2.91 -6.2 0.53 5.45c-0.3,-0.62 -1.48,-2.52 -1.85,-3.25 0.15,5.82 2.86,13.33 3.49,19.71 0.43,4.33 0.66,5.97 2.53,9.34 1.35,2.44 3.18,5.73 5.41,7.08 -0.77,-3.55 -2.65,-8.34 -2.81,-12.3 2.77,3.64 4.45,8.26 7.75,11.32z"/>
  <path class="fil0 str0" d="M89.03 254.72c-0.96,-4.28 -1.03,-8.9 -1.94,-13.24 -1.56,-7.41 -6.74,-19.81 -6.71,-23.74 -0.66,4.94 2.59,14.62 2.6,24.09 -2.1,-2.94 -3.89,-8.78 -5.14,-12.79 -0.35,5.43 1.9,10.73 2.35,15.52 -2.29,-2.99 -5.47,-12 -6.56,-16.29 -0.48,-1.89 -0.61,-4.94 -1.35,-6.56l-0.17 -10.72c1.13,2.21 1.07,5.21 1.77,7.55 0.11,-3.34 -1.22,-11.6 -2.69,-13.88 -0.68,3.85 -1.69,5.06 -2.07,7.13 -0.14,-0.01 -0.28,-0.02 -0.44,-0.02 -0.03,-1.58 -0.16,-2.95 -0.53,-4.2l-0.9 4.32c-0.59,-2.24 -0.8,-4.07 -1.08,-6.42 -0.17,-1.44 -0.28,-5.87 -0.54,-6.77 -0.69,0.92 -3.04,6.86 -3.53,8.39 -0.88,2.77 -0.33,8.49 0.66,11.08 0.29,-2.24 0.12,-4.86 0.83,-6.8 0.11,0.26 4.7,21.53 4.71,21.7 -0.49,-1.51 -1.63,-5.1 -2.27,-6.5l1.3 9.14 -2.2 -4.47c-0.06,1.92 0.28,3.69 -0.1,5.04 -0.01,0.04 -0.05,0.15 -0.09,0.21 -1.71,-4.1 -3.17,-8.44 -4.54,-12.68 -1.91,-5.9 -1.67,-8.61 -1.57,-14.75l1.45 5c1.61,-6.97 1.31,-6.7 1.06,-13.74l-1.24 3.81c-0.25,0.49 -0.24,0.45 -0.48,0.74l0.37 -10.07c-1.55,2.29 -3.14,4.65 -4.59,6.99 -0,-0.1 -0.05,-0.85 -0.06,-0.9l-0.34 -0.89c-0.04,-0.09 -0.09,-0.22 -0.16,-0.32l-1.48 1.85 1.12 -9.13c-1.79,2.32 -2.65,5.21 -4.39,7.52 -0,-0.22 0.02,-1.27 -0,-1.39l-0.24 -0.84c-0.02,-0.06 -0.06,-0.18 -0.12,-0.25 -3.1,8.48 -2.18,8.12 0.2,18.5 0.28,1.2 1.22,4.26 1.05,5.4 -0.1,0.71 -0.04,0.43 -0.28,0.83l-2.28 -6.11 -0.28 3.28c-1.41,-1.71 -0.2,-1.58 -1.58,-2.78 -2.07,-1.79 -2.53,-8.39 -2.33,-11.12 0.43,1.02 0.35,2.23 1.1,3.22l2.26 -9.45c0.29,-1.66 0.41,-3.39 0.78,-5.11 0.37,-1.71 1.02,-3.17 1.32,-4.72 -1.7,1.14 -4.26,5.38 -5.4,6.3l1.07 -4.85c-3.71,2.42 -7.35,18.73 -7.71,22.95 -0.04,0.47 -0.08,0.99 -0.1,1.53 -0.78,-11.53 1.6,-10.75 1.66,-16.7l-1.87 3.2c-0.13,-6.1 2.66,-14.16 5.14,-19.51 0.95,-2.04 2.09,-3.27 2.96,-5.22 -1.5,0.81 -6.47,7.29 -7.57,9.25 -1.55,2.5 -3.46,5.55 -4.79,8.77 0.49,-1.49 0.93,-2.98 1.46,-4.52 0.46,-1.35 2.07,-5.94 2.2,-6.78 -0.33,0.68 -2.78,2.61 -4.75,5.3 -0.32,0.44 -0.47,0.69 -0.7,1.02l-1.04 1.24c0.64,-5.34 5.13,-11.22 6.26,-14.23 -1.36,1.12 -7.28,8.73 -7.76,9.79l1.4 -3.77c-2.07,1.23 -5.28,6.93 -6.31,9.39 0.51,-4.08 3.94,-10.66 6.17,-14.41 0.93,-1.56 2.05,-2.84 2.78,-4.25 -1.85,0.58 -8.28,6.73 -10.3,8.66 0.2,-2.11 1.91,-4.12 2.52,-6.35 -2.34,0.78 -1.44,1.08 -2.84,1.79 1.67,-1.6 3.9,-3.54 5.03,-5.88 -1.36,1.02 -2.43,2.27 -3.59,3.43 -1.21,1.21 -2.24,2.78 -3.34,3.75 0.49,-2.48 5.55,-8.93 7.47,-11.03 0.96,-1.05 2.02,-2.14 2.82,-3.2 -3.46,1.53 -6.95,5.86 -9.48,7.2 0.95,-4.2 3.3,-5.52 5.29,-8.15 -1.19,0.79 -2.68,1.73 -3.94,2.64 -4.52,3.26 -6.88,7.82 -9.39,11.68 1.67,-3.97 3.58,-7.97 6.34,-11.26 1.02,-1.21 2.14,-1.99 2.97,-3.23 -2.82,1.06 -7.1,5.4 -8.99,6.56 1.14,-4.02 3.86,-5.85 6.13,-8.75 1.07,-1.37 2.5,-2.56 3.71,-3.89 1.22,-1.34 2.22,-2.69 3.51,-3.84 -2.89,1.75 -9.93,9.6 -11.3,10.6 2.83,-5.41 8.67,-10.64 10.06,-13.06 -2.57,1.09 -7.22,4.4 -10.1,4.78 1.23,-1.88 6.12,-5.06 8.51,-7.15 1.08,-0.94 1.66,-1.74 2.83,-2.47 -2.65,0.56 -6.38,3.83 -8.58,4.72 0.77,-1.9 4.42,-5.31 4.81,-7.04 -2.38,2.28 -1.58,-0.84 -7.53,7.06l-2.27 2.7c-0.05,0.05 -0.14,0.13 -0.22,0.19 2.16,-4.26 6.14,-7.36 6.63,-8.32 -3.27,-0.39 -4.65,2.07 -5.92,3.99 -3.29,4.95 -4.44,7.07 -8.35,12.07 -0.83,1.06 -1.51,1.72 -2.4,2.79 -1.07,1.29 -1.42,1.32 -2.6,2.52 1.71,0.92 9.06,-1.88 11.33,-2.36 -0.98,3.48 -10.52,13.95 -11.42,16.23 4.17,-0.55 7.72,-3.32 11.16,-4.11l-1.81 7.06 3.46 -5.7c-1.31,3.22 -3.04,7.24 -4.05,10.74 2.9,-0.72 3.72,-2.36 9.02,-3.16l-0.64 2.74c1.22,-0.45 1.14,-0.78 2.7,-1.26 -1,2.29 -2.4,3.92 -2.91,6.86 1.33,-0.68 2.17,-1.89 3.76,-3.09 0.33,1.89 0.08,3.89 0.14,5.82 0.06,1.88 0.33,3.54 0.53,5.33 0.07,-0.07 0.17,-0.28 0.2,-0.22l0.66 -0.9c1.23,-2.07 3.79,-7.55 5.11,-8.82 -0.55,4.9 -1.62,14.23 0.32,18.75 0.72,-2.17 1.19,-4.68 1.96,-7.06 0.73,-2.26 1.47,-4.14 2.29,-6.34 -0.15,0.54 -0.28,1.09 -0.39,1.63 2.9,-1.97 1.28,-1.65 2.34,-1.7 -0.48,4.57 -1.54,7.28 -0.77,12.31 -0,-0.95 0.37,-2.97 0.83,-3.75 0.92,1.99 0.85,9.53 3.5,11.99 0.19,1.61 0.69,3.13 1.77,4.07l0.32 -5.25c0.69,1.03 0.81,1.64 1.64,2.76l0.9 -7.12c0.52,0.49 0.35,0.21 0.75,1.01 0.53,1.07 2.43,11.75 5.56,15.7l-0.12 -5.26c1.24,0.58 4.74,9.96 6.47,11.6l0.2 -2.68c1.85,2.04 3.72,6.19 5.17,8.69 1.43,2.45 4.05,6.85 5.68,8.15l-0.86 -8.19c0.7,0.36 2.06,2.66 2.72,3.56 1.92,2.64 6.03,9.44 7.85,10.92 -0.39,-1.88 -1.19,-3.33 -1.8,-5.18 -6.89,-20.93 -5.16,-31.92 -5.21,-38.96 0.13,0 0.25,0.01 0.37,0.01 -0,2.04 0.66,4.99 3.06,11.46 -0.48,7.04 0.3,13.67 2.47,19.89 1.61,4.6 5.26,12.9 8.72,15.78 -0.57,-3.79 -2.79,-8.5 -2.27,-12.9l0.94 1.7 -0.12 -2.8c0.89,0.72 5.81,18.35 10.43,21.44 -0.59,-4.12 -2.31,-7.9 -3.24,-12.08zm-33.81 -47.33c0.81,7.66 4.49,14.82 4.74,23.55l-1.23 -1.31c-0.33,-0.48 -0.23,-0.5 -0.77,-1.05l0.82 5.37c-0.9,-1.1 -2.1,-4.76 -2.8,-6.36 -0.89,-2.02 -1.6,-4.47 -2.23,-6.78 -1.31,-4.78 -1.67,-11.1 -0.21,-16.02 0.64,0.65 0.77,2.7 0.93,3.6l0.59 -0.75c0.02,-0.13 0.11,-0.17 0.17,-0.25z"/>
  <path class="fil0 str0" d="M39.4 102.84c3.03,-2.28 13.69,-3.8 21.29,-6.96l-7.47 1.73c-2.86,0.56 -6.05,0.76 -9.1,0.53 2.84,-1.64 8.8,-1.58 15.08,-4.28 2.14,-0.92 3.55,-1.25 4.46,-2.33 -4.23,0.83 -13.44,4.22 -19.4,1.85 2.63,-1.72 14.2,-2.5 18.82,-4.63 11.27,-5.19 23.04,-8.38 26.76,-20.97 2.1,-7.12 -0.14,-14.81 -3.99,-18.23l3.29 0.3c-2.04,-1.95 -7.14,-3.09 -8.86,-5.34 3.78,0.6 12.61,3.53 15.31,3.38 -1.7,-1 -5.97,-2.76 -7.12,-4.02 4.5,-0.31 7.59,0.93 10.98,0.99l-2.39 -1.58c-0.8,-0.55 -0.42,-0.15 -0.99,-0.85 2.85,0.23 5.32,1.73 7.82,2.33 -0.73,-0.98 -2.58,-1.87 -3.51,-2.79l-0.63 -0.71c1.07,0.07 2.09,0.27 3.01,0.5 3.69,0.92 1.49,-1.25 4.65,0.13 1.07,0.47 1.19,0.73 2.52,1 -1.33,-1.76 -8.05,-7.04 -11.01,-7.97 1.09,1.53 3.29,3.51 4.07,5.6 -4.37,-0.44 -7.78,-6.41 -10.62,-7.3 1.21,2.67 3.36,4.58 4.59,6.97 -2.74,-0.09 -5.4,-0.46 -7.85,-1.01 -2.16,-0.49 -5.02,-1.57 -6.82,-1.8 0.77,0.61 7.01,4.73 7.21,5.06 -4.89,-0.17 -5.82,-1 -9.67,-1.61l1.99 1.86c-1.72,0.09 -4.75,-0.59 -6.48,-0.89 -3.83,-0.67 -3.04,-0.43 -5.44,-2.5l-12.25 -10.94c-3.79,-3.53 -3.86,-2.49 -8.3,-7.27l-3.96 -3.98c-8.31,-6.83 -13.19,-24.8 -18.27,-13.1 -2.37,5.46 -3.98,13.48 -3.94,19.49 0.02,5.7 -0.48,11.69 -0.15,17.3 0.72,12.02 2.41,18.76 5.32,29.69l5.95 20.35c3.3,9.76 4.13,1.88 -3.46,17.55 -5.76,11.9 -14.98,17.3 -15.52,18.01 -0.19,0.25 -0.3,0.33 -0.34,0.35 0.04,0.01 0.1,0.07 0.16,0.26l3.67 0.24c-1.1,2.52 -9.51,13.43 -11.61,15.96 -1.41,1.69 -3.36,3.31 -4.46,4.77 4.92,0.4 10.53,-2.3 13.62,-4.27 2.73,-1.75 8.85,-5.95 10.28,-7.81 -3.7,1.42 -7.81,5.69 -12.6,6.28 1.06,-0.98 2.6,-1.45 4.06,-2.26l11.2 -7.82c-2.18,0.3 -5.88,2.52 -7.1,2.18 1.34,-1.03 2.78,-1.62 3.7,-3.1l-10.01 4.98c0.25,-0.99 3.12,-4.43 3.76,-5.43 1.37,-2.15 1.99,-4.08 4.6,-5.09 4.46,-1.72 11.25,-6.26 12.17,-6.53 -3.66,1.01 -7.14,4.26 -11.92,5.01 1.59,-1.93 9.96,-4.8 12.44,-7.2l-5.15 1.77c2.18,-1.95 4.62,-3.57 7.15,-5.14 -2.89,1.06 -8.2,4.47 -11.55,5.18 1.67,-2.63 11.37,-6.51 15.72,-9.36l-5.75 1.23c0.8,-0.98 1.68,-1.85 2.39,-2.75 -2.45,0.32 -3.83,1.56 -6.02,2.1 1.22,-1.49 9.77,-6.41 11.03,-7.53l-5.34 0.42zm-6.95 -67.82c-0.11,-0.57 -0.19,-1.15 -0.24,-1.72 0.08,0.57 0.16,1.14 0.24,1.72zm0 0c-0.11,-0.57 -0.19,-1.15 -0.24,-1.72 0.08,0.57 0.16,1.14 0.24,1.72zm17.83 51.58c-6.82,-3.48 -10.5,-10.38 -12.72,-18.06 -1.42,-4.94 -2.09,-12.65 -2.77,-17.95 -0.71,-5.51 -1.63,-10.61 -2.34,-15.57 0.91,4.67 3.86,9.36 6.34,11.87 5.19,5.24 8.95,5.03 12.21,7.39 -1.82,1.19 -5.26,-0.54 -7.22,-0.76 1.17,1.19 4.89,2.38 6.92,3.59 -1.69,0.63 -4.93,-0.86 -6.8,-1.11 1.94,1.71 4.77,2.2 7.09,3.46 -1.36,1.31 -5.19,1.15 -7.39,1.18 3.4,2.84 6.34,3.76 7.03,4.85 -3.74,0.32 -3.42,0.03 -6.5,-0.91 1.23,2.32 3.55,3.6 5.54,5.26 -1.47,0.72 -3.44,-0.35 -4.84,-0.7 1.41,2.42 5.57,3.84 8.75,5.17 -2.12,1.9 -5.99,1.2 -8.13,0.53 1.28,1 1.86,2.29 4.52,3.77 1.82,1.01 4.22,1.74 5.83,2.65 -2.96,1.7 -7.36,-0.87 -9.43,-1.3 6.48,4.69 5.76,3.31 10.9,5.88 -0.57,0.55 -2.47,1.41 -3.35,1.68 -1.43,0.43 -2.41,-0.31 -3.63,-0.94zm15.95 -20.02c-1.85,-2.83 -9.81,-4.19 -11.45,-7.62l7.44 0.22c-0.68,-0.66 -0.18,-0.29 -1.11,-0.71 -0.09,-0.04 -0.85,-0.3 -1.03,-0.36 -2.28,-0.76 -5.76,-1.45 -6.99,-2.45 0.08,-0.06 0.2,-0.1 0.27,-0.13 0.07,-0.02 0.19,-0.09 0.28,-0.11 0.04,-0.01 -0.59,-0.4 1.47,-0.01 0.55,0.1 1.41,0.4 1.94,0.55 1.33,0.35 2.71,0.67 4.14,0.78 -2.11,-4.44 -6.17,-4.95 -7.89,-6.52l3.44 0.04c-0.52,-1.55 -9.49,-15.05 -10.96,-16.95l-12.03 -15.4c0.16,2.06 0.91,2.42 1.18,4.25 -1.67,-1.28 -3.85,-7.37 -3.92,-8.84 0.96,0.62 0.59,0.34 1.38,1.56l8.7 9.66c-0.69,-2.12 -3.84,-7.4 -5.08,-9.5 -1.9,-3.22 -3.1,-6.53 -4.66,-9.94 -2.31,4.34 -3.8,27.09 -3.2,34.87 0.12,1.56 1.19,8.77 1.28,10.57 0.01,-3.16 -1.35,-14.97 -0.79,-24.29 0.08,-1.3 0.58,-5.83 1.5,-7.01 0.39,7.43 -0.26,14.54 0.75,21.95 0.44,3.19 1.23,6.58 1.94,9.55 0.7,2.92 1.77,6.1 1.88,9.12l-4.66 -16.33c-0.26,18.97 9.84,42.46 10.05,48.85 -2.35,-1.99 -6.85,-15.06 -8.2,-19.23 -4.56,-14.05 -6.57,-32.87 -6.13,-47.93 0.16,-5.56 1.5,-18.04 4.93,-22.13 1.38,0.42 2.44,2.73 3.3,3.95 2.18,3.1 6.87,9.44 9.15,11.6 2.48,2.35 4.39,4.59 6.78,7.06l15.2 12.83c1.28,1.14 2.57,2.12 3.77,3.14 7.04,5.95 16.36,9.92 16.98,17.79l-1.53 0.69c0.58,2.38 0.7,5.44 0.46,8.14 -0.73,-1.36 -13.17,-14.75 -13.55,-15.16 -2.41,-2.55 -4.87,-4.7 -7.36,-7.17 -1.33,-1.31 -2.55,-2.66 -3.6,-3.66l-4.02 -3.44c0.89,2.72 24.08,34.62 26.26,37.2 -2.42,1.74 -7.38,4.47 -10.83,5.02 -4.51,0.73 -8.68,-1.39 -11.46,-3.43 2.99,-0.37 7.15,0 9.43,-1.59 -2.24,-1.2 -9.6,-2.2 -10.94,-4.47 3.34,-0.84 6.14,-0.68 9.67,-1.09 -2.33,-1.81 -6.56,-2.1 -9.21,-3.79 1.54,-0.78 5,-0.18 7,-0.16z"/>
  <path class="fil0 str0" d="M208.74 93.38c-5.96,2.36 -15.17,-1.02 -19.4,-1.85 0.91,1.08 2.32,1.41 4.46,2.33 6.28,2.7 12.24,2.64 15.08,4.28 -3.05,0.24 -6.25,0.03 -9.1,-0.53l-7.47 -1.73c7.61,3.16 18.26,4.68 21.29,6.96l-5.34 -0.42c1.26,1.12 9.81,6.04 11.03,7.53 -2.2,-0.54 -3.58,-1.79 -6.02,-2.1 0.71,0.89 1.58,1.77 2.39,2.75l-5.75 -1.23c4.35,2.86 14.05,6.74 15.72,9.36 -3.35,-0.71 -8.66,-4.12 -11.55,-5.18 2.53,1.57 4.97,3.19 7.15,5.14l-5.15 -1.77c2.48,2.4 10.85,5.27 12.44,7.2 -4.77,-0.75 -8.26,-4 -11.92,-5.01 0.92,0.26 7.72,4.81 12.17,6.53 2.61,1.01 3.24,2.94 4.6,5.09 0.63,1 3.51,4.44 3.76,5.43l-10.01 -4.98c0.92,1.48 2.36,2.08 3.7,3.1 -1.22,0.34 -4.92,-1.89 -7.1,-2.18l11.2 7.82c1.46,0.81 3,1.28 4.06,2.26 -4.79,-0.59 -8.9,-4.86 -12.6,-6.28 1.43,1.86 7.55,6.07 10.28,7.81 3.08,1.97 8.69,4.68 13.62,4.27 -1.1,-1.46 -3.05,-3.08 -4.46,-4.77 -2.1,-2.52 -10.51,-13.44 -11.61,-15.96l3.67 -0.24c0.06,-0.19 0.13,-0.25 0.16,-0.26 -0.05,-0.02 -0.15,-0.11 -0.34,-0.35 -0.55,-0.71 -9.76,-6.11 -15.52,-18.01 -7.59,-15.67 -6.76,-7.79 -3.46,-17.55l5.95 -20.35c2.91,-10.94 4.6,-17.67 5.32,-29.69 0.33,-5.61 -0.17,-11.61 -0.15,-17.3 0.04,-6.01 -1.57,-14.03 -3.94,-19.49 -5.08,-11.7 -9.97,6.27 -18.27,13.1l-3.96 3.98c-4.44,4.78 -4.51,3.74 -8.3,7.27l-12.25 10.94c-2.4,2.07 -1.61,1.83 -5.44,2.5 -1.73,0.3 -4.76,0.99 -6.48,0.89l1.99 -1.86c-3.84,0.61 -4.78,1.44 -9.67,1.61 0.2,-0.33 6.44,-4.45 7.21,-5.06 -1.8,0.23 -4.66,1.31 -6.82,1.8 -2.45,0.56 -5.11,0.92 -7.85,1.01 1.23,-2.39 3.38,-4.3 4.59,-6.97 -2.84,0.88 -6.25,6.86 -10.62,7.3 0.78,-2.09 2.98,-4.07 4.07,-5.6 -2.96,0.93 -9.69,6.21 -11.01,7.97 1.33,-0.27 1.45,-0.53 2.52,-1 3.16,-1.38 0.96,0.79 4.65,-0.13 0.92,-0.23 1.95,-0.42 3.01,-0.5l-0.63 0.71c-0.93,0.92 -2.78,1.81 -3.51,2.79 2.5,-0.6 4.97,-2.11 7.82,-2.33 -0.57,0.7 -0.19,0.3 -0.99,0.85l-2.39 1.58c3.38,-0.06 6.48,-1.3 10.98,-0.99 -1.15,1.26 -5.42,3.02 -7.12,4.02 2.7,0.14 11.54,-2.78 15.31,-3.38 -1.71,2.24 -6.82,3.39 -8.86,5.34l3.29 -0.3c-3.85,3.42 -6.09,11.11 -3.99,18.23 3.72,12.6 15.49,15.79 26.76,20.97 4.62,2.13 16.19,2.9 18.82,4.63zm12.36 -20.23c-1.35,4.18 -5.85,17.24 -8.2,19.23 0.22,-6.39 10.32,-29.88 10.05,-48.85l-4.66 16.33c0.11,-3.02 1.18,-6.2 1.88,-9.12 0.71,-2.97 1.5,-6.37 1.94,-9.55 1.02,-7.41 0.36,-14.52 0.75,-21.95 0.92,1.18 1.43,5.71 1.5,7.01 0.56,9.31 -0.81,21.13 -0.79,24.29 0.08,-1.8 1.16,-9.01 1.28,-10.57 0.6,-7.78 -0.89,-30.53 -3.2,-34.87 -1.55,3.42 -2.76,6.72 -4.66,9.94 -1.24,2.1 -4.38,7.37 -5.08,9.5l8.7 -9.66c0.79,-1.22 0.43,-0.94 1.38,-1.56 -0.07,1.47 -2.25,7.56 -3.92,8.84 0.28,-1.82 1.02,-2.19 1.18,-4.25l-12.03 15.4c-1.47,1.9 -10.44,15.4 -10.96,16.95l3.44 -0.04c-1.72,1.56 -5.77,2.08 -7.89,6.52 1.43,-0.11 2.81,-0.43 4.14,-0.78 0.53,-0.14 1.39,-0.44 1.94,-0.55 2.05,-0.39 1.43,-0 1.47,0.01 0.09,0.02 0.21,0.09 0.28,0.11 0.07,0.02 0.19,0.07 0.27,0.13 -1.23,1 -4.71,1.68 -6.99,2.45 -0.18,0.06 -0.94,0.32 -1.03,0.36 -0.93,0.42 -0.43,0.06 -1.11,0.71l7.44 -0.22c-1.63,3.43 -9.6,4.79 -11.45,7.62 2,-0.03 5.46,-0.62 7,0.16 -2.64,1.69 -6.88,1.98 -9.21,3.79 3.53,0.4 6.33,0.25 9.67,1.09 -1.33,2.27 -8.7,3.27 -10.94,4.47 2.28,1.59 6.44,1.22 9.43,1.59 -2.78,2.04 -6.95,4.16 -11.46,3.43 -3.44,-0.56 -8.41,-3.29 -10.83,-5.02 2.18,-2.58 25.37,-34.48 26.26,-37.2l-4.02 3.44c-1.05,1 -2.28,2.35 -3.6,3.66 -2.49,2.46 -4.95,4.62 -7.36,7.17 -0.38,0.4 -12.82,13.79 -13.55,15.16 -0.24,-2.71 -0.12,-5.76 0.46,-8.14l-1.53 -0.69c0.63,-7.87 9.94,-11.85 16.98,-17.79 1.21,-1.02 2.49,-2 3.77,-3.14l15.2 -12.83c2.39,-2.47 4.3,-4.71 6.78,-7.06 2.29,-2.16 6.97,-8.5 9.15,-11.6 0.86,-1.22 1.93,-3.53 3.3,-3.95 3.43,4.09 4.76,16.57 4.93,22.13 0.44,15.06 -1.57,33.87 -6.13,47.93zm-0.55 -38.13c-0.71,4.96 -1.63,10.05 -2.34,15.57 -0.68,5.3 -1.35,13.01 -2.77,17.95 -2.21,7.67 -5.89,14.57 -12.72,18.06 -1.22,0.62 -2.2,1.37 -3.63,0.94 -0.88,-0.27 -2.79,-1.13 -3.35,-1.68 5.14,-2.58 4.43,-1.19 10.9,-5.88 -2.06,0.43 -6.46,3 -9.43,1.3 1.61,-0.92 4.01,-1.64 5.83,-2.65 2.66,-1.48 3.24,-2.76 4.52,-3.77 -2.14,0.67 -6.01,1.37 -8.13,-0.53 3.18,-1.33 7.34,-2.75 8.75,-5.17 -1.4,0.35 -3.37,1.42 -4.84,0.7 1.99,-1.67 4.31,-2.94 5.54,-5.26 -3.08,0.94 -2.75,1.23 -6.5,0.91 0.69,-1.09 3.63,-2.01 7.03,-4.85 -2.21,-0.03 -6.03,0.13 -7.39,-1.18 2.32,-1.26 5.15,-1.76 7.09,-3.46 -1.87,0.25 -5.11,1.74 -6.8,1.11 2.03,-1.21 5.75,-2.4 6.92,-3.59 -1.96,0.22 -5.41,1.94 -7.22,0.76 3.25,-2.36 7.01,-2.15 12.21,-7.39 2.48,-2.51 5.43,-7.19 6.34,-11.87zm0.24 -1.72c-0.05,0.57 -0.13,1.14 -0.24,1.72 0.08,-0.57 0.16,-1.15 0.24,-1.72zm0 0c-0.05,0.57 -0.13,1.14 -0.24,1.72 0.08,-0.57 0.16,-1.15 0.24,-1.72z"/>
  <path class="fil0 str0" d="M126.51 116.14c-0.43,-1.33 -0.32,-8.44 -0,-15.96l0.01 -0c0.32,7.52 0.43,14.64 -0,15.96zm-5.57 -35.59c-1.22,-1.26 -3.01,-5.14 -4.17,-7.15l-1.71 -2.56 1.16 10.42 -3.88 -6.63c-0.84,1.31 0.82,5.65 0.97,9.09l-4 -5.38c-0.26,3.52 1.44,9.48 0.56,10.95 -0.91,-1.5 -2.09,-2.96 -2.64,-5.07 -2.39,3.34 0.97,14.71 4.43,18.63 1.7,-1.61 3.15,-9.99 5.54,-11.05 2.91,4.58 7.82,21.81 9.31,24.35 1.49,-2.54 6.4,-19.77 9.31,-24.35 2.38,1.06 3.84,9.44 5.54,11.05 3.46,-3.92 6.82,-15.29 4.43,-18.63 -0.55,2.11 -1.73,3.58 -2.64,5.07 -0.88,-1.47 0.82,-7.43 0.56,-10.95l-4 5.38c0.15,-3.44 1.81,-7.78 0.97,-9.09l-3.88 6.63 1.16 -10.42 -1.71 2.56c-1.16,2.01 -2.95,5.89 -4.17,7.15 -0.03,-5.5 4.76,-12.05 4.97,-13.59 -0.16,0.5 -2.81,4.07 -3.57,5.56 0.51,-4.89 8.02,-12.99 8.66,-14.43 -2.41,1.04 -7.12,7.14 -8.93,9.84 -2.21,3.3 -4.64,8.43 -5.42,13.22 -0.36,2.23 -0.93,10.71 -1.28,18.78l-0.01 -0c-0.34,-8.07 -0.91,-16.54 -1.28,-18.78 -0.78,-4.79 -3.22,-9.92 -5.42,-13.22 -1.81,-2.71 -6.51,-8.8 -8.93,-9.84 0.64,1.44 8.15,9.54 8.66,14.43 -0.75,-1.49 -3.41,-5.06 -3.57,-5.56 0.21,1.54 5,8.09 4.97,13.59z"/>
  <path class="fil0 str0" d="M127.34 80.06c0.78,-5.21 2.36,-10.07 4.84,-13.86 2.96,-4.53 8.23,-9.45 8.68,-10.11 -3.95,1.02 -6.51,4.38 -9.59,5.53 0.39,-3.68 1.9,-6.71 2.47,-9.9l-1.07 1.49c-3.32,6.23 -6.15,20.58 -5.33,26.85z"/>
  <path class="fil0 str0" d="M125.67 80.06c0.82,-6.27 -2,-20.61 -5.33,-26.85l-1.07 -1.49c0.58,3.19 2.09,6.22 2.47,9.9 -3.08,-1.14 -5.64,-4.51 -9.59,-5.53 0.45,0.65 5.72,5.58 8.68,10.11 2.48,3.79 4.06,8.65 4.84,13.86z"/>
  <path class="fil0 str0" d="M151.97 111.82c-4.56,-0.13 -8.45,11.81 -8.64,17.41l5.9 -7.92c1.21,-2.1 3.72,-7.13 2.74,-9.49z"/>
  <path class="fil0 str0" d="M153.5 128.2c-3.53,1.73 -5.89,5.51 -6.73,10.59 1.39,-0.76 3.34,-3.31 4.23,-4.64 0.92,-1.38 2.13,-4.16 2.5,-5.95z"/>
  <path class="fil0 str0" d="M109.68 129.23c-0.19,-5.59 -4.08,-17.53 -8.64,-17.41 -0.98,2.36 1.53,7.39 2.74,9.49l5.9 7.92z"/>
  <path class="fil0 str0" d="M106.24 138.79c-0.84,-5.07 -3.2,-8.85 -6.73,-10.59 0.37,1.79 1.59,4.57 2.5,5.95 0.88,1.33 2.83,3.88 4.23,4.64z"/>
  <path class="fil1 str0" d="M98.02 254.4l-6.41 -17.89c-0.04,0.08 -0.08,0.12 -0.08,0.24 -0.01,0.12 -0.06,0.19 -0.07,0.24l0.69 4.04 -2.91 -6.2 0.53 5.45c-0.3,-0.62 -1.48,-2.52 -1.85,-3.25 0.15,5.82 2.86,13.33 3.49,19.71 0.43,4.33 0.66,5.97 2.53,9.34 1.35,2.44 3.18,5.73 5.41,7.08 -0.77,-3.55 -2.65,-8.34 -2.81,-12.3 2.77,3.64 4.45,8.26 7.75,11.32 -1.82,-4.58 -3.86,-11.56 -6.25,-17.78z"/>
  <path class="fil1 str0" d="M89.03 254.72c-0.96,-4.28 -1.03,-8.9 -1.94,-13.24 -1.56,-7.41 -6.74,-19.81 -6.71,-23.74 -0.66,4.94 2.59,14.62 2.6,24.09 -2.1,-2.94 -3.89,-8.78 -5.14,-12.79 -0.35,5.43 1.9,10.73 2.35,15.52 -2.29,-2.99 -5.47,-12 -6.56,-16.29 -0.48,-1.89 -0.61,-4.94 -1.35,-6.56l-0.17 -10.72c1.13,2.21 1.07,5.21 1.77,7.55 0.11,-3.34 -1.22,-11.6 -2.69,-13.88 -0.68,3.85 -1.69,5.06 -2.07,7.13 -0.14,-0.01 -0.28,-0.02 -0.44,-0.02 -0.03,-1.58 -0.16,-2.95 -0.53,-4.2l-0.9 4.32c-0.59,-2.24 -0.8,-4.07 -1.08,-6.42 -0.17,-1.44 -0.28,-5.87 -0.54,-6.77 -0.69,0.92 -3.04,6.86 -3.53,8.39 -0.88,2.77 -0.33,8.49 0.66,11.08 0.29,-2.24 0.12,-4.86 0.83,-6.8 0.11,0.26 4.7,21.53 4.71,21.7 -0.49,-1.51 -1.63,-5.1 -2.27,-6.5l1.3 9.14 -2.2 -4.47c-0.06,1.92 0.28,3.69 -0.1,5.04 -0.01,0.04 -0.05,0.15 -0.09,0.21 -1.71,-4.1 -3.17,-8.44 -4.54,-12.68 -1.91,-5.9 -1.67,-8.61 -1.57,-14.75l1.45 5c1.61,-6.97 1.31,-6.7 1.06,-13.74l-1.24 3.81c-0.25,0.49 -0.24,0.45 -0.48,0.74l0.37 -10.07c-1.55,2.29 -3.14,4.65 -4.59,6.99 -0,-0.1 -0.05,-0.85 -0.06,-0.9l-0.34 -0.89c-0.04,-0.09 -0.09,-0.22 -0.16,-0.32l-1.48 1.85 1.12 -9.13c-1.79,2.32 -2.65,5.21 -4.39,7.52 -0,-0.22 0.02,-1.27 -0,-1.39l-0.24 -0.84c-0.02,-0.06 -0.06,-0.18 -0.12,-0.25 -3.1,8.48 -2.18,8.12 0.2,18.5 0.28,1.2 1.22,4.26 1.05,5.4 -0.1,0.71 -0.04,0.43 -0.28,0.83l-2.28 -6.11 -0.28 3.28c-1.41,-1.71 -0.2,-1.58 -1.58,-2.78 -2.07,-1.79 -2.53,-8.39 -2.33,-11.12 0.43,1.02 0.35,2.23 1.1,3.22l2.26 -9.45c0.29,-1.66 0.41,-3.39 0.78,-5.11 0.37,-1.71 1.02,-3.17 1.32,-4.72 -1.7,1.14 -4.26,5.38 -5.4,6.3l1.07 -4.85c-3.71,2.42 -7.35,18.73 -7.71,22.95 -0.04,0.47 -0.08,0.99 -0.1,1.53 -0.78,-11.53 1.6,-10.75 1.66,-16.7l-1.87 3.2c-0.13,-6.1 2.66,-14.16 5.14,-19.51 0.95,-2.04 2.09,-3.27 2.96,-5.22 -1.5,0.81 -6.47,7.29 -7.57,9.25 -1.55,2.5 -3.46,5.55 -4.79,8.77 0.49,-1.49 0.93,-2.98 1.46,-4.52 0.46,-1.35 2.07,-5.94 2.2,-6.78 -0.33,0.68 -2.78,2.61 -4.75,5.3 -0.32,0.44 -0.47,0.69 -0.7,1.02l-1.04 1.24c0.64,-5.34 5.13,-11.22 6.26,-14.23 -1.36,1.12 -7.28,8.73 -7.76,9.79l1.4 -3.77c-2.07,1.23 -5.28,6.93 -6.31,9.39 0.51,-4.08 3.94,-10.66 6.17,-14.41 0.93,-1.56 2.05,-2.84 2.78,-4.25 -1.85,0.58 -8.28,6.73 -10.3,8.66 0.2,-2.11 1.91,-4.12 2.52,-6.35 -2.34,0.78 -1.44,1.08 -2.84,1.79 1.67,-1.6 3.9,-3.54 5.03,-5.88 -1.36,1.02 -2.43,2.27 -3.59,3.43 -1.21,1.21 -2.24,2.78 -3.34,3.75 0.49,-2.48 5.55,-8.93 7.47,-11.03 0.96,-1.05 2.02,-2.14 2.82,-3.2 -3.46,1.53 -6.95,5.86 -9.48,7.2 0.95,-4.2 3.3,-5.52 5.29,-8.15 -1.19,0.79 -2.68,1.73 -3.94,2.64 -4.52,3.26 -6.88,7.82 -9.39,11.68 1.67,-3.97 3.58,-7.97 6.34,-11.26 1.02,-1.21 2.14,-1.99 2.97,-3.23 -2.82,1.06 -7.1,5.4 -8.99,6.56 1.14,-4.02 3.86,-5.85 6.13,-8.75 1.07,-1.37 2.5,-2.56 3.71,-3.89 1.22,-1.34 2.22,-2.69 3.51,-3.84 -2.89,1.75 -9.93,9.6 -11.3,10.6 2.83,-5.41 8.67,-10.64 10.06,-13.06 -2.57,1.09 -7.22,4.4 -10.1,4.78 1.23,-1.88 6.12,-5.06 8.51,-7.15 1.08,-0.94 1.66,-1.74 2.83,-2.47 -2.65,0.56 -6.38,3.83 -8.58,4.72 0.77,-1.9 4.42,-5.31 4.81,-7.04 -2.38,2.28 -1.58,-0.84 -7.53,7.06l-2.27 2.7c-0.05,0.05 -0.14,0.13 -0.22,0.19 2.16,-4.26 6.14,-7.36 6.63,-8.32 -3.27,-0.39 -4.65,2.07 -5.92,3.99 -3.29,4.95 -4.44,7.07 -8.35,12.07 -0.83,1.06 -1.51,1.72 -2.4,2.79 -1.07,1.29 -1.42,1.32 -2.6,2.52 1.71,0.92 9.06,-1.88 11.33,-2.36 -0.98,3.48 -10.52,13.95 -11.42,16.23 4.17,-0.55 7.72,-3.32 11.16,-4.11l-1.81 7.06 3.46 -5.7c-1.31,3.22 -3.04,7.24 -4.05,10.74 2.9,-0.72 3.72,-2.36 9.02,-3.16l-0.64 2.74c1.22,-0.45 1.14,-0.78 2.7,-1.26 -1,2.29 -2.4,3.92 -2.91,6.86 1.33,-0.68 2.17,-1.89 3.76,-3.09 0.33,1.89 0.08,3.89 0.14,5.82 0.06,1.88 0.33,3.54 0.53,5.33 0.07,-0.07 0.17,-0.28 0.2,-0.22l0.66 -0.9c1.23,-2.07 3.79,-7.55 5.11,-8.82 -0.55,4.9 -1.62,14.23 0.32,18.75 0.72,-2.17 1.19,-4.68 1.96,-7.06 0.73,-2.26 1.47,-4.14 2.29,-6.34 -0.15,0.54 -0.28,1.09 -0.39,1.63 2.9,-1.97 1.28,-1.65 2.34,-1.7 -0.48,4.57 -1.54,7.28 -0.77,12.31 -0,-0.95 0.37,-2.97 0.83,-3.75 0.92,1.99 0.85,9.53 3.5,11.99 0.19,1.61 0.69,3.13 1.77,4.07l0.32 -5.25c0.69,1.03 0.81,1.64 1.64,2.76l0.9 -7.12c0.52,0.49 0.35,0.21 0.75,1.01 0.53,1.07 2.43,11.75 5.56,15.7l-0.12 -5.26c1.24,0.58 4.74,9.96 6.47,11.6l0.2 -2.68c1.85,2.04 3.72,6.19 5.17,8.69 1.43,2.45 4.05,6.85 5.68,8.15l-0.86 -8.19c0.7,0.36 2.06,2.66 2.72,3.56 1.92,2.64 6.03,9.44 7.85,10.92 -0.39,-1.88 -1.19,-3.33 -1.8,-5.18 -6.89,-20.93 -5.16,-31.92 -5.21,-38.96 0.13,0 0.25,0.01 0.37,0.01 -0,2.04 0.66,4.99 3.06,11.46 -0.48,7.04 0.3,13.67 2.47,19.89 1.61,4.6 5.26,12.9 8.72,15.78 -0.57,-3.79 -2.79,-8.5 -2.27,-12.9l0.94 1.7 -0.12 -2.8c0.89,0.72 5.81,18.35 10.43,21.44 -0.59,-4.12 -2.31,-7.9 -3.24,-12.08zm-33.81 -47.33c0.81,7.66 4.49,14.82 4.74,23.55l-1.23 -1.31c-0.33,-0.48 -0.23,-0.5 -0.77,-1.05l0.82 5.37c-0.9,-1.1 -2.1,-4.76 -2.8,-6.36 -0.89,-2.02 -1.6,-4.47 -2.23,-6.78 -1.31,-4.78 -1.67,-11.1 -0.21,-16.02 0.64,0.65 0.77,2.7 0.93,3.6l0.59 -0.75c0.02,-0.13 0.11,-0.17 0.17,-0.25z"/>
  <path class="fil1 str0" d="M179.56 193.62c0.16,-0.02 0.06,-0.06 0,0zm-106.11 0c-0.16,-0.02 -0.06,-0.06 0,0zm42.95 86.82c3.04,1.62 8.34,13.73 8.93,16.25 0.4,-0.26 0.79,-0.77 1.18,-1.45 0.39,0.68 0.78,1.19 1.18,1.45 0.59,-2.52 5.89,-14.62 8.93,-16.25l-0.64 3.94c2.51,-0.91 5.97,-4.75 7.6,-6.81 7.7,-9.76 9.28,-18.89 11.06,-31.47 1.27,-8.98 5.17,-25.09 9.36,-33.22 1.34,-2.6 3.66,-7.12 5.35,-8.42l0.18 4.22 2.91 -8.24c0.62,0.61 0.69,1.27 1.1,2.06 1.39,-2.04 1.13,-4.69 2.81,-6.57l0.73 2.57 2.35 -4.88c0.06,-0 0.11,-0.01 0.15,-0.01 -0.05,0.06 -0.07,0.2 0.19,0.51 0.12,0.15 0.18,0.27 0.19,0.36 0.04,-0.05 0.09,-0.11 0.16,-0.17 0.33,-0.31 0.52,-1.52 0.64,-2.02 0.35,-1.48 0.68,-2.76 0.92,-4.32 1.07,1.13 1.8,3.21 2.51,4.74l1.37 -7.67c0.57,-0.22 0.2,-0.1 1.02,0.36l0.55 -4.07c0.55,1.19 0.01,0.66 0.96,1.48l0.51 -4.62 1.23 1.63 -0.18 -3.77c0.73,-0.32 0.07,-0.06 0.71,-0.05 0.23,0 0.36,0.02 0.43,0.04 0.01,-0 0.01,-0 0.02,-0.01l-0.36 -5.53c1.8,0.19 2.09,0.59 3.67,1.1 -0.8,-2.29 -2.86,-4.64 -3.97,-6.02l3.46 0.36c0.11,-0.46 -0.46,-1 -0.52,-1.56l5.04 1.06c-0.35,-0.94 -0.44,-1.06 -1.08,-1.83l-1.15 -1.57 5.82 0.34 -1.58 -3.33 5.22 0.31c-0.9,-1.68 -2.54,-2.11 -3.78,-3.35 1.63,0 3.22,-0.02 4.84,-0.02 1.65,-0 2.61,0.53 4.01,0.53 -0.93,-0.51 -1.64,-1.04 -2.72,-1.51 -1.11,-0.49 -2.28,-0.88 -2.92,-1.65 8.55,-0.17 9.63,1.57 14.33,1.92 -3.08,-3.19 -11.83,-6.9 -12.91,-7.61 2.85,-1.1 6.49,0.64 8.7,1.24 -3.07,-3.77 -4.66,-3.77 -9.41,-6.29 3.33,-0.71 6.43,0.36 9.3,0.95l-1.73 -1.56c-0.54,-0.36 -1.02,-0.67 -1.68,-1.07 -1.33,-0.79 -2.55,-1.14 -3.82,-1.88l5.15 0.67c-1.8,-1.18 -4.9,-1.63 -7.18,-2.28 -1.57,-0.45 -0.69,0.15 -1.99,-0.91 5.58,-0.7 10.02,-0.2 14.94,0.96 -2.46,-1.84 -7.04,-2.53 -10.23,-3.91 3.95,-0.61 7.08,1.3 10.08,1.81 -2.19,-1.59 -4.38,-4.06 -6.94,-4.92l1.62 -0.78c-1.51,-0.46 -6.54,-1.87 -7.78,-2.92 3.19,-1.01 5.11,-0.99 8.78,-0.88 -0.97,-0.75 -1.82,-0.88 -3.06,-1.48l6.05 -0.05c-1.74,-0.65 -3.5,-1.12 -5.5,-1.5 -1.4,-0.26 -5.43,-0.45 -6.29,-0.8 2.19,-1.06 7.2,-0.51 9.86,-0.41 -2.21,-1.48 -7.76,-1.93 -8.87,-2.71 2.05,-1.07 5.14,-0.11 6.97,-1.46 -2.98,-0.65 -4.86,-2.15 -8.85,-2.42 -3.6,-0.24 -6.45,0.93 -8.99,2.16 1.17,0.76 4,0.61 5.45,1.09 -0.66,1.26 -7.05,5.66 -9.07,6.38 -2.15,0.76 -10.42,2.19 -13,2.25 1.49,-2.48 5.79,-5.36 8.11,-7.16l2.65 -2.32c-3.96,0.21 -9.61,3.35 -12.37,5.06 -1.89,1.17 -3.41,2.39 -5.14,3.51 -1.91,1.24 -3.4,2.43 -4.91,3.2 2.26,-3.33 6.72,-6.09 10.53,-8.81 -7.28,1.42 -13.24,11.34 -17.25,13.72 1.18,-2.65 5.39,-7.44 7.78,-9.89 0.97,-1 1.7,-1.96 2.88,-2.81 -1.12,0.43 -4.06,2.6 -5.36,3.38 1.43,-2.39 3.72,-3.37 4.86,-5.26 -1.25,0.55 -2.71,1.53 -3.47,2.34 1.48,-3.03 6.51,-5.62 9.47,-7.27 3.83,-2.13 8.24,-3.39 13.13,-3.81 -0.09,-0.07 -0.21,-0.14 -0.29,-0.18l-0.94 -0.39c-0.15,-0.04 -0.86,-0.1 -1.04,-0.12 -0.62,-0.04 -1.19,0.01 -1.87,-0.04 1.13,-0.11 6.06,-1.36 7.2,-2.27 -1.76,-0.44 -5.81,-1.07 -7.31,-1.6 1.68,-0.53 4.95,-0.52 6.24,-1.94 -1.55,-0.5 -2.81,-1.17 -4.54,-1.66 -1.57,-0.44 -3.57,-0.62 -4.8,-1.25l8.26 -1.76c-1.3,-0.94 -6.97,-2.68 -10.79,-2.51 -3.02,0.13 -7.55,1.63 -9.15,4.32l2.7 -0.5c-1.35,3 -4.64,5.6 -5.55,8.94 1.3,-0.74 4.96,-2.59 6.81,-2.6 -0.78,0.85 -2.22,1.99 -3.03,2.9l5.19 -0.33 -1.58 1.37c-4.33,2.74 -6.31,3.89 -9.01,8.63 -9.46,16.63 -6.1,14.74 -21.28,29.92 -1.25,1.25 -4.06,3.99 -6,3.55 -2.96,-4.12 1,-15.11 3.11,-18 -0.08,2.7 -1.46,6.03 -1.7,9.34l0.83 -1.44c1.11,-2.97 2.35,-7.77 4.41,-9.84l-2.22 7.11c1.23,-3.29 4.01,-6.48 4.79,-10.95 -2.08,0.67 -4.51,2.27 -5.66,3.59 -3.46,3.95 -5.92,14.5 -6.41,19.91 -3.06,-6.01 -0.49,-10.77 0.25,-16.92 -0.32,0.32 -0.21,0.17 -0.52,0.67 -0.19,0.31 -0.19,0.33 -0.36,0.73 -1.57,3.55 -2.5,7.15 -2.83,11.1 -0.96,-11.77 4.41,-15.95 4.6,-24.05 -1.42,1.48 -4.2,4.34 -5.27,6.04 0.45,-1.68 1.56,-6.2 1.32,-7.97 -0.07,0.68 -1.63,2.7 -2.42,3.27l-0.35 -6.4c-0.53,1.32 -1.41,3.13 -2.03,4.83 -0.54,1.48 -1.2,4.46 -1.71,5.56 -0.04,-0.29 -0.1,-0.59 -0.16,-0.92 -0.06,0.32 -0.12,0.63 -0.16,0.92 -0.51,-1.1 -1.17,-4.08 -1.71,-5.56 -0.63,-1.7 -1.5,-3.51 -2.03,-4.83l-0.35 6.4c-0.79,-0.57 -2.35,-2.59 -2.42,-3.27 -0.24,1.77 0.87,6.29 1.32,7.97 -1.06,-1.7 -3.85,-4.56 -5.27,-6.04 0.19,8.11 5.56,12.29 4.6,24.05 -0.33,-3.95 -1.25,-7.55 -2.83,-11.1 -0.18,-0.4 -0.17,-0.42 -0.36,-0.73 -0.31,-0.5 -0.2,-0.35 -0.52,-0.67 0.73,6.15 3.31,10.91 0.25,16.92 -0.49,-5.41 -2.95,-15.96 -6.41,-19.91 -1.16,-1.32 -3.59,-2.91 -5.66,-3.59 0.78,4.46 3.56,7.66 4.79,10.95l-2.22 -7.11c2.06,2.07 3.3,6.87 4.41,9.84l0.83 1.44c-0.24,-3.31 -1.62,-6.64 -1.7,-9.34 2.11,2.9 6.07,13.88 3.11,18 -1.94,0.44 -4.75,-2.3 -6,-3.55 -15.18,-15.18 -11.81,-13.29 -21.28,-29.92 -2.7,-4.75 -4.68,-5.89 -9.01,-8.63l-1.58 -1.37 5.19 0.33c-0.81,-0.91 -2.25,-2.04 -3.03,-2.9 1.85,0.02 5.51,1.87 6.81,2.6 -0.91,-3.34 -4.2,-5.94 -5.55,-8.94l2.7 0.5c-1.61,-2.69 -6.13,-4.19 -9.15,-4.32 -3.82,-0.16 -9.49,1.57 -10.79,2.51l8.26 1.76c-1.23,0.64 -3.24,0.81 -4.8,1.25 -1.73,0.49 -2.99,1.15 -4.54,1.66 1.29,1.42 4.56,1.41 6.24,1.94 -1.5,0.54 -5.55,1.16 -7.31,1.6 1.14,0.91 6.07,2.16 7.2,2.27 -0.68,0.05 -1.25,-0 -1.87,0.04 -0.18,0.01 -0.88,0.08 -1.04,0.12l-0.94 0.39c-0.09,0.04 -0.2,0.11 -0.29,0.18 4.89,0.43 9.3,1.68 13.13,3.81 2.96,1.65 7.99,4.24 9.47,7.27 -0.76,-0.81 -2.22,-1.79 -3.47,-2.34 1.14,1.89 3.43,2.87 4.86,5.26 -1.29,-0.78 -4.23,-2.95 -5.36,-3.38 1.19,0.86 1.91,1.82 2.88,2.81 2.39,2.45 6.6,7.24 7.78,9.89 -4.01,-2.38 -9.97,-12.3 -17.25,-13.72 3.81,2.72 8.27,5.48 10.53,8.81 -1.5,-0.78 -3,-1.96 -4.91,-3.2 -1.73,-1.12 -3.25,-2.34 -5.14,-3.51 -2.76,-1.71 -8.41,-4.85 -12.37,-5.06l2.65 2.32c2.31,1.8 6.62,4.68 8.11,7.16 -2.58,-0.06 -10.84,-1.49 -13,-2.25 -2.02,-0.72 -8.41,-5.12 -9.07,-6.38 1.45,-0.48 4.28,-0.33 5.45,-1.09 -2.54,-1.23 -5.4,-2.41 -8.99,-2.16 -3.99,0.27 -5.87,1.77 -8.85,2.42 1.83,1.35 4.92,0.39 6.97,1.46 -1.12,0.78 -6.67,1.23 -8.87,2.71 2.66,-0.1 7.68,-0.65 9.86,0.41 -0.86,0.35 -4.89,0.54 -6.29,0.8 -2,0.38 -3.76,0.85 -5.5,1.5l6.05 0.05c-1.24,0.6 -2.08,0.74 -3.06,1.48 3.67,-0.11 5.6,-0.14 8.78,0.88 -1.24,1.05 -6.27,2.47 -7.78,2.92l1.62 0.78c-2.57,0.86 -4.75,3.33 -6.94,4.92 3,-0.51 6.13,-2.42 10.08,-1.81 -3.19,1.38 -7.77,2.07 -10.23,3.91 4.92,-1.16 9.36,-1.66 14.94,-0.96 -1.3,1.05 -0.42,0.46 -1.99,0.91 -2.28,0.65 -5.39,1.1 -7.18,2.28l5.15 -0.67c-1.27,0.74 -2.49,1.09 -3.82,1.88 -0.67,0.39 -1.14,0.71 -1.68,1.07l-1.73 1.56c2.87,-0.59 5.98,-1.67 9.3,-0.95 -4.75,2.52 -6.34,2.52 -9.41,6.29 2.21,-0.6 5.85,-2.34 8.7,-1.24 -1.08,0.71 -9.82,4.42 -12.91,7.61 4.71,-0.34 5.79,-2.08 14.33,-1.92 -0.64,0.77 -1.8,1.16 -2.92,1.65 -1.07,0.47 -1.79,1 -2.72,1.51 1.4,-0 2.36,-0.54 4.01,-0.53 1.62,0 3.22,0.02 4.84,0.02 -1.24,1.24 -2.87,1.67 -3.78,3.35l5.22 -0.31 -1.58 3.33 5.82 -0.34 -1.15 1.57c-0.65,0.77 -0.73,0.89 -1.08,1.83l5.04 -1.06c-0.06,0.56 -0.63,1.1 -0.52,1.56l3.46 -0.36c-1.11,1.38 -3.17,3.73 -3.97,6.02 1.58,-0.51 1.87,-0.9 3.67,-1.1l-0.36 5.53c0.01,0 0.01,0 0.02,0.01 0.06,-0.02 0.19,-0.04 0.43,-0.04 0.63,-0.01 -0.03,-0.27 0.71,0.05l-0.18 3.77 1.23 -1.63 0.51 4.62c0.94,-0.81 0.4,-0.29 0.96,-1.48l0.55 4.07c0.83,-0.45 0.46,-0.57 1.02,-0.36l1.37 7.67c0.71,-1.53 1.44,-3.61 2.51,-4.74 0.24,1.56 0.57,2.85 0.92,4.32 0.12,0.51 0.31,1.72 0.64,2.02 0.07,0.07 0.13,0.13 0.16,0.17 0.01,-0.09 0.07,-0.22 0.19,-0.36 0.26,-0.32 0.25,-0.46 0.19,-0.51 0.04,0 0.08,0.01 0.15,0.01l2.35 4.88 0.73 -2.57c1.68,1.88 1.42,4.53 2.81,6.57 0.41,-0.79 0.48,-1.45 1.1,-2.06l2.91 8.24 0.18 -4.22c1.69,1.3 4.01,5.82 5.35,8.42 4.19,8.13 8.09,24.24 9.36,33.22 1.78,12.57 3.36,21.7 11.06,31.47 1.63,2.07 5.1,5.91 7.6,6.81l-0.64 -3.94zm3.25 -0.75c-0.55,-0.4 -0.17,-0.06 -0.63,-0.57l-2.44 -4.19c-0.83,-1.58 -1.68,-3.18 -2.39,-4.85 -1.28,-3.02 -3.36,-7.7 -3.97,-11.04 4.73,1.17 8.38,2.45 13.71,3.39 0.35,2.83 -1.92,4.46 -0.4,12.12 0.72,3.65 1.81,8.36 1.46,12.13 -1.64,-4.3 -4.98,-13.56 -7.45,-16.54 0.12,3.3 1.58,6.37 2.12,9.56zm6.86 -19.34c-7.06,0.02 -14.72,-1.18 -19.8,-5.64 -4.03,-3.54 -6.64,-12.11 -6.85,-19.48 1.33,2.34 1.76,12.19 8.32,17.66 4.06,3.38 11.43,5.51 18.33,5.59 6.9,-0.08 14.27,-2.21 18.33,-5.59 6.57,-5.48 6.99,-15.32 8.32,-17.66 -0.21,7.37 -2.82,15.94 -6.85,19.48 -5.08,4.46 -12.74,5.65 -19.8,5.64zm0 -8.45c-6.04,0.06 -12.11,-1.23 -14.87,-4.21 -3.1,-3.34 -3.07,-9.79 -1.29,-13.44 0.11,-0.23 0.23,-0.43 0.4,-0.63 0.51,-0.62 -0.06,-0.12 0.57,-0.43 0.61,1.93 0.96,3.41 1.72,5.17 0.71,1.64 1.61,3.14 2.1,4.78 1.79,-0.49 0.95,-1.08 3.08,-1.26l1.41 2.24c1.61,-0.67 1.18,-1.09 3.19,-1.02 0.51,0.7 0.98,1.51 1.56,2.16 1.47,-0.61 1.16,-0.97 2.13,-1.54 0.97,0.57 0.67,0.93 2.13,1.54 0.58,-0.65 1.05,-1.45 1.56,-2.16 2.01,-0.07 1.59,0.35 3.19,1.02l1.41 -2.24c2.12,0.18 1.29,0.77 3.08,1.26 0.49,-1.64 1.39,-3.14 2.1,-4.78 0.76,-1.76 1.11,-3.25 1.72,-5.17 0.63,0.31 0.06,-0.18 0.57,0.43 0.16,0.2 0.29,0.4 0.4,0.63 1.78,3.65 1.81,10.1 -1.29,13.44 -2.76,2.98 -8.83,4.27 -14.87,4.21zm-9.36 -31.66c-8.02,0.97 -13.63,-6.13 -16.49,-10 -3.22,-4.34 -7.25,-12.5 -6.96,-19.4 1.58,0.57 2.34,2.21 3.76,3.24 -0.93,-1.65 -3.89,-4.45 -2.78,-6.6 0.87,-0.25 0.62,0.03 1.41,0.66 0.7,0.56 0.99,0.69 1.6,1.21 0.98,0.85 1.8,1.76 2.43,2.46 -0.34,-2.03 -3.06,-4.39 -4.14,-6.06 0.98,-3.56 2.71,-3.8 6.68,-3.14 3.03,0.5 5.56,1.8 7.06,3.34 6.64,6.84 5.04,11.43 9.76,10.78 -0.74,-0.77 -5.22,-8.78 -5.56,-10.26 4.67,2.11 6.91,10.47 9.7,11.49 -0.98,-4.02 -7.21,-10.48 -9.4,-12.7 -4.81,-4.89 -5.53,-6.32 -14.73,-6.62 0.54,-2.39 2.54,-6.83 3.55,-9.44 0.94,-2.43 2.33,-7.62 4.12,-8.89 1.65,0.54 3.38,1.9 4.31,3.27l-3.42 -0.8 4.39 2.34c-0.88,0.01 -1.73,-0.09 -2.54,-0.07l-1.78 0.38c7.74,3.64 8.66,2.09 14.96,9.63 0.06,-0.07 0.12,-0.18 0.14,-0.23 0.03,-0.05 0.11,-0.17 0.13,-0.22l0.34 -0.9 2.5 4.06c0.11,-0.1 0.22,-0.21 0.32,-0.32 0.1,0.11 0.2,0.22 0.32,0.32l2.5 -4.06 0.34 0.9c0.03,0.06 0.11,0.18 0.13,0.22 0.03,0.05 0.09,0.16 0.14,0.23 6.3,-7.54 7.22,-5.99 14.96,-9.63l-1.78 -0.38c-0.81,-0.02 -1.66,0.08 -2.54,0.07l4.39 -2.34 -3.42 0.8c0.93,-1.37 2.66,-2.73 4.31,-3.27 1.79,1.28 3.18,6.46 4.12,8.89 1.01,2.61 3.01,7.05 3.55,9.44 -9.2,0.3 -9.92,1.73 -14.73,6.62 -2.19,2.23 -8.42,8.68 -9.4,12.7 2.79,-1.02 5.03,-9.38 9.7,-11.49 -0.34,1.48 -4.82,9.49 -5.56,10.26 4.72,0.65 3.12,-3.95 9.76,-10.78 1.5,-1.54 4.04,-2.84 7.06,-3.34 3.97,-0.66 5.7,-0.42 6.68,3.14 -1.08,1.67 -3.8,4.03 -4.14,6.06 0.64,-0.7 1.45,-1.61 2.43,-2.46 0.61,-0.53 0.9,-0.66 1.6,-1.21 0.79,-0.62 0.54,-0.91 1.41,-0.66 1.11,2.15 -1.85,4.95 -2.78,6.6 1.42,-1.03 2.18,-2.67 3.76,-3.24 0.29,6.9 -3.75,15.06 -6.96,19.4 -2.86,3.86 -8.47,10.97 -16.49,10 2.85,-2.34 4.7,-3 6.9,-6.08 1.63,-2.28 3.67,-6.82 3.13,-10.07 -0.4,-2.37 -1.28,-2.73 -3.17,-3.42 -1.59,-0.58 -3,-1.46 -4.51,-2.07 -4.84,-1.94 -7.38,0.79 -11.37,0.62 -0.11,-0 -0.22,-0.01 -0.33,-0.02 -0.11,0.01 -0.22,0.01 -0.33,0.02 -3.99,0.18 -6.53,-2.55 -11.37,-0.62 -1.51,0.61 -2.92,1.48 -4.51,2.07 -1.89,0.7 -2.78,1.05 -3.17,3.42 -0.54,3.25 1.49,7.79 3.13,10.07 2.21,3.08 4.06,3.74 6.9,6.08zm0.6 4.36c0.21,2.16 -0.07,3.18 -1.17,4.36 -2.36,-0.3 -3.46,-3.53 -3.84,-5.9 1.4,0.28 4.07,0.91 5.02,1.55zm8.76 -15.56c-1.67,0.08 -3.63,-0.66 -7.85,-2.61 -6.84,-3.15 -7.13,-0.12 -8.46,-0.57 -1.74,-4.18 2.44,-4.99 5.93,-4.53 3.18,0.42 5.76,2.07 8.7,2.41 0.57,0.07 1.13,0.07 1.68,0.02 0.55,0.05 1.1,0.04 1.68,-0.02 2.93,-0.33 5.52,-1.98 8.7,-2.41 3.49,-0.47 7.67,0.35 5.93,4.53 -1.33,0.45 -1.62,-2.58 -8.46,0.57 -4.22,1.95 -6.18,2.69 -7.85,2.61zm-4.48 -40.92c-7.37,-7.39 -12.31,-7.2 -14.21,-12.2 3.36,-0.04 7.43,1.02 11.47,1.05 3.62,0.02 5.9,2.93 5.96,6.59 -2.85,-0.81 -4.9,-2.16 -8.39,-2.75 1.61,1.6 3.44,1.93 7.26,6.26 1.17,1.32 0.85,1.51 2.08,2.18 0.11,-0.06 0.21,-0.14 0.32,-0.21 0.11,0.08 0.21,0.15 0.32,0.21 1.23,-0.67 0.91,-0.86 2.08,-2.18 3.83,-4.33 5.66,-4.66 7.26,-6.26 -3.49,0.59 -5.54,1.95 -8.39,2.75 0.06,-3.67 2.34,-6.57 5.96,-6.59 4.03,-0.02 8.11,-1.09 11.47,-1.05 -1.89,5 -6.83,4.81 -14.21,12.2 -2.15,2.16 -2.38,2.44 -3.97,4.96 -0.17,-0.12 -0.34,-0.27 -0.51,-0.45 -0.17,0.18 -0.34,0.34 -0.51,0.45 -1.59,-2.52 -1.82,-2.81 -3.97,-4.96zm4.48 120.24c-0.17,-1.27 -0.14,-2.69 0,-4.13 0.14,1.44 0.17,2.86 0,4.13zm2.99 -13.82c1.51,-7.66 -0.75,-9.29 -0.4,-12.12 5.32,-0.93 8.97,-2.21 13.71,-3.39 -0.62,3.34 -2.7,8.03 -3.97,11.04 -0.71,1.67 -1.55,3.27 -2.39,4.85l-2.44 4.19c-0.46,0.51 -0.07,0.17 -0.63,0.57 0.54,-3.19 2,-6.26 2.12,-9.56 -2.47,2.98 -5.81,12.25 -7.45,16.54 -0.35,-3.77 0.74,-8.48 1.46,-12.13zm-37.93 -70.1c1.94,5.57 6.13,19.91 7.09,25.41 -2.23,-1.12 -4.38,-8.22 -5.57,-11.02 -1.66,-3.9 -3.08,-7.58 -5.02,-11.21 -2.92,-5.45 -9.3,-16.78 -7.71,-24.44 2.32,0.61 3.01,2.63 4.03,4.58l7.17 16.68zm62.79 25.41c0.96,-5.5 5.15,-19.84 7.09,-25.41l7.17 -16.68c1.03,-1.95 1.71,-3.97 4.03,-4.58 1.59,7.67 -4.79,18.99 -7.71,24.44 -1.94,3.62 -3.36,7.3 -5.02,11.21 -1.19,2.8 -3.34,9.91 -5.57,11.02zm-47.75 -10.33c0.52,1.06 0.69,8.79 -1.87,10.29 -4.18,-1.33 -4.29,-12.53 -4.38,-17.25 1.14,0.55 0.15,-0.23 1.24,0.91 0.2,0.21 0.49,0.68 0.72,1l4.29 5.05zm-13.61 -33.7c-1.81,-1.52 -1.3,-6.21 -9.59,-9.87 -0.27,-0.12 -0.74,-0.33 -0.98,-0.49 -0.89,-0.57 -0.09,0.08 -0.7,-0.58 7.66,-0.24 14.12,2.16 11.27,10.94zm2.07 -7.69c-4.24,-3.81 -9.07,-3.48 -11.42,-5.22 2.37,-0.18 9.13,-1.17 10.67,-0.97 3.73,0.5 3.64,4.17 2.12,7.19 -0.88,-0.39 -0.54,-0.26 -1.37,-1zm-17.88 -27.94c0.35,0.22 0.08,-0.33 0,0zm23.77 7.4c-0.92,2.55 -4.18,2.82 -5.98,4.74l4.39 0.41c-1.4,0.52 -2.03,1.72 -4.43,2.11 -2.34,0.38 -4.39,0.18 -6.66,0.38l5.58 1c-2.87,0.68 -3.52,0.99 -6.95,0.65 -3.93,-0.4 -0.6,1 -7.09,0.15 -13.39,-1.75 -8.97,-12.66 -25.06,-15.77 -1.19,-0.23 -2.46,-0.34 -3.67,-0.38l-3.2 -0.31c-0.04,-0.1 -0.16,-0.06 -0.23,-0.11 3.46,-2.04 13.95,-3.27 15.06,-3.81 -2.1,-1.44 -6.56,-1.98 -7.65,-2.77l1.45 -0.39c0.07,-0.03 0.23,-0.02 0.28,-0.14 0.05,-0.13 0.19,-0.09 0.27,-0.12l-3.81 -1.42c1.36,-0.98 4.44,-0.39 6.39,-0.45 -1.44,-0.98 -4.08,-2.81 -5.68,-3.55 2.82,-0.48 3.85,-0.39 6.46,-0.05 -1.09,-2.06 -2.8,-2.44 -4.44,-4.36l7.18 0.42c-1.1,-2.06 -2.28,-2.12 -3.31,-3.62 1.09,-0.17 3.4,-0.28 4.21,-0.71 0,-0 1.94,-1.95 3.65,-0.44 0.45,0.4 -0.41,0.07 -0.8,1.15 1.25,0.84 3.07,2.79 3.75,4.48l-2.37 -0.91c0.71,1.28 0.98,1.25 1.83,2.28l-3.83 -0.82c1.36,1.43 2.31,2.02 3.69,3.62 1.08,1.24 2.16,2.82 3.25,3.91l-2 0.66c1.08,0.68 2.18,1.77 3.05,2.52l-0.78 0.12c-0.48,0.07 0.06,-0.29 -0.85,0.14 0.98,0.43 1.77,0.73 2.65,1.14l-0.98 0.35c-0.6,0.22 -0.37,0.04 -0.76,0.31l3.35 1.95c0.12,0.11 0.21,0.18 0.27,0.22 -0.01,0.05 -0.02,0.13 -0.02,0.23 0.01,0.45 -0.4,0.88 -0.51,0.93l3.08 1.28 -1.71 0.77 4.45 1.36 -2.36 1.24 4.68 -0.48 -1.3 0.85 3.63 -0.25c-1.62,0.7 -2.21,0.29 -3.55,1.65 11.9,3.54 9.86,0.34 17.39,-0.19zm1.47 -3.9c-11.38,3.32 -16.43,1.74 -22.51,-5.06 -2.33,-2.61 -3.74,-6.73 -5.27,-10.27 -4.15,-9.61 -4.54,-7.1 -5.94,-9.32 15.82,0.94 8.57,16.14 22.35,21.29 4.05,1.51 9.32,1.18 11.38,3.36zm68.15 21.78c0.89,-0.57 0.09,0.08 0.7,-0.58 -7.66,-0.24 -14.12,2.16 -11.27,10.94 1.81,-1.52 1.3,-6.21 9.59,-9.87 0.27,-0.12 0.74,-0.33 0.98,-0.49zm-22.32 54.35c-2.56,-1.5 -2.38,-9.23 -1.87,-10.29l4.29 -5.05c0.23,-0.32 0.52,-0.79 0.72,-1 1.08,-1.14 0.1,-0.36 1.24,-0.91 -0.09,4.72 -0.21,15.92 -4.38,17.25zm21.09 -56.9c-2.35,1.74 -7.18,1.41 -11.42,5.22 -0.82,0.74 -0.48,0.61 -1.37,1 -1.53,-3.02 -1.61,-6.69 2.12,-7.19 1.54,-0.21 8.3,0.79 10.67,0.97zm6.46 -22.73c-0.35,0.22 -0.08,-0.33 0,0zm-2.64 16.84c-6.49,0.85 -3.16,-0.55 -7.09,-0.15 -3.44,0.35 -4.08,0.03 -6.95,-0.65l5.58 -1c-2.27,-0.2 -4.32,0 -6.66,-0.38 -2.4,-0.39 -3.03,-1.59 -4.43,-2.11l4.39 -0.41c-1.79,-1.92 -5.05,-2.19 -5.98,-4.74 7.53,0.53 5.49,3.73 17.39,0.19 -1.35,-1.37 -1.93,-0.96 -3.55,-1.65l3.63 0.25 -1.3 -0.85 4.68 0.48 -2.36 -1.24 4.45 -1.36 -1.71 -0.77 3.08 -1.28c-0.11,-0.05 -0.52,-0.47 -0.51,-0.93 0,-0.1 -0.01,-0.18 -0.02,-0.23 0.07,-0.04 0.16,-0.11 0.27,-0.22l3.35 -1.95c-0.39,-0.27 -0.16,-0.09 -0.76,-0.31l-0.98 -0.35c0.88,-0.41 1.67,-0.71 2.65,-1.14 -0.91,-0.43 -0.37,-0.07 -0.85,-0.14l-0.78 -0.12c0.88,-0.76 1.97,-1.85 3.05,-2.52l-2 -0.66c1.09,-1.09 2.17,-2.66 3.25,-3.91 1.39,-1.6 2.33,-2.19 3.69,-3.62l-3.83 0.82c0.85,-1.04 1.12,-1 1.83,-2.28l-2.37 0.91c0.68,-1.7 2.5,-3.64 3.75,-4.48 -0.4,-1.08 -1.25,-0.76 -0.8,-1.15 1.71,-1.51 3.65,0.43 3.65,0.44 0.81,0.43 3.12,0.54 4.21,0.71 -1.03,1.5 -2.21,1.56 -3.31,3.62l7.18 -0.42c-1.64,1.92 -3.35,2.3 -4.44,4.36 2.61,-0.34 3.63,-0.42 6.46,0.05 -1.6,0.74 -4.23,2.57 -5.68,3.55 1.95,0.06 5.02,-0.53 6.39,0.45l-3.81 1.42c0.07,0.03 0.22,-0.01 0.27,0.12 0.05,0.12 0.21,0.11 0.28,0.14l1.45 0.39c-1.09,0.79 -5.55,1.33 -7.65,2.77 1.11,0.54 11.6,1.76 15.06,3.81 -0.07,0.05 -0.19,0.01 -0.23,0.11l-3.2 0.31c-1.22,0.04 -2.49,0.15 -3.67,0.38 -16.08,3.11 -11.67,14.02 -25.06,15.77zm-32.89 56.02c-0.38,2.37 -1.48,5.6 -3.84,5.9 -1.11,-1.17 -1.38,-2.2 -1.17,-4.36 0.95,-0.64 3.62,-1.27 5.02,-1.55zm32.79 -74.43c-6.08,6.8 -11.13,8.38 -22.51,5.06 2.06,-2.18 7.34,-1.85 11.38,-3.36 13.78,-5.15 6.53,-20.35 22.35,-21.29 -1.41,2.22 -1.8,-0.29 -5.94,9.32 -1.53,3.55 -2.94,7.67 -5.27,10.27zm-44.96 -2.37l-0.49 -9.77 -0.75 1.96c-0.18,0.7 -0.27,1.13 -0.38,1.74 -0.1,-0.61 -0.2,-1.04 -0.38,-1.74l-0.75 -1.96 -0.49 9.77c-0.36,-0.22 -1.02,0.14 -0.85,-1.12l-0.58 1.56c-0.91,-2.85 -3.99,-11.17 -4.19,-13.64 1.08,0.71 4.09,5.18 4.31,6.2l0.25 -10.64c1.53,1.78 2.11,4.79 2.68,7.51 0.57,-2.72 1.14,-5.73 2.68,-7.51l0.25 10.64c0.21,-1.02 3.23,-5.49 4.31,-6.2 -0.21,2.47 -3.28,10.79 -4.19,13.64l-0.58 -1.56c0.17,1.26 -0.49,0.89 -0.85,1.12zm-18.7 114.05c1.04,3.69 3.32,11.74 3.51,14.92 -1.15,-1.76 -3.92,-6.03 -4.66,-8.05l1.02 3.34c-1.99,-1.98 -5.21,-11.09 -5.11,-14.92l2.36 5.89 -0.45 -4.67c2.29,0.63 2.66,1.09 3.33,3.48zm30.67 14.92c0.2,-3.18 2.47,-11.23 3.51,-14.92 0.67,-2.39 1.05,-2.85 3.33,-3.48l-0.45 4.67 2.36 -5.89c0.09,3.83 -3.12,12.94 -5.11,14.92l1.02 -3.34c-0.74,2.02 -3.51,6.28 -4.66,8.05zm-39.69 -130.49c-4.51,1.29 -6.35,2.96 -10.35,-0.67 -2.64,-2.4 -3.92,-5.52 -3.46,-10.34l4.15 2.01c0.32,4.99 1.81,6.46 6.4,4.73 0.92,1.15 2.61,2.97 3.26,4.27zm62.58 -0.67c-4,3.64 -5.84,1.97 -10.35,0.67 0.65,-1.3 2.34,-3.12 3.26,-4.27 4.59,1.73 6.08,0.26 6.4,-4.73l4.15 -2.01c0.46,4.82 -0.82,7.94 -3.46,10.34z"/>
  <path class="fil1 str0" d="M161.61 256.74c0.63,-6.38 3.34,-13.89 3.49,-19.71 -0.38,0.73 -1.55,2.63 -1.85,3.25l0.53 -5.45 -2.91 6.2 0.69 -4.04c-0.01,-0.05 -0.06,-0.12 -0.07,-0.24 -0.01,-0.12 -0.04,-0.16 -0.08,-0.24l-6.41 17.89c-2.39,6.22 -4.44,13.2 -6.25,17.78 3.3,-3.06 4.97,-7.68 7.75,-11.32 -0.16,3.96 -2.04,8.75 -2.81,12.3 2.22,-1.34 4.06,-4.63 5.41,-7.08 1.86,-3.37 2.1,-5.01 2.53,-9.34z"/>
  <path class="fil1 str0" d="M239.96 178.52l0 0zm-74.04 62.97c-0.91,4.34 -0.99,8.96 -1.94,13.24 -0.94,4.19 -2.65,7.96 -3.24,12.08 4.61,-3.09 9.54,-20.72 10.43,-21.44l-0.12 2.8 0.94 -1.7c0.52,4.4 -1.71,9.11 -2.27,12.9 3.47,-2.88 7.11,-11.18 8.72,-15.78 2.17,-6.21 2.95,-12.85 2.47,-19.89 2.39,-6.47 3.06,-9.43 3.06,-11.46 0.12,-0 0.24,-0.01 0.37,-0.01 -0.04,7.04 1.68,18.03 -5.21,38.96 -0.61,1.86 -1.41,3.3 -1.8,5.18 1.82,-1.48 5.93,-8.27 7.85,-10.92 0.65,-0.9 2.02,-3.2 2.72,-3.56l-0.86 8.19c1.63,-1.3 4.25,-5.7 5.68,-8.15 1.46,-2.5 3.32,-6.65 5.17,-8.69l0.2 2.68c1.73,-1.64 5.23,-11.02 6.47,-11.6l-0.12 5.26c3.13,-3.96 5.03,-14.64 5.56,-15.7 0.39,-0.8 0.22,-0.52 0.75,-1.01l0.9 7.12c0.82,-1.12 0.95,-1.74 1.64,-2.76l0.32 5.25c1.09,-0.94 1.58,-2.46 1.77,-4.07 2.65,-2.46 2.58,-10 3.5,-11.99 0.46,0.78 0.83,2.8 0.83,3.75 0.77,-5.04 -0.29,-7.74 -0.77,-12.31 1.07,0.04 -0.56,-0.27 2.34,1.7 -0.1,-0.54 -0.23,-1.09 -0.39,-1.63 0.82,2.19 1.57,4.07 2.29,6.34 0.76,2.38 1.24,4.89 1.96,7.06 1.94,-4.52 0.87,-13.85 0.32,-18.75 1.32,1.27 3.88,6.75 5.11,8.82l0.66 0.9c0.03,-0.06 0.13,0.15 0.2,0.22 0.2,-1.79 0.47,-3.46 0.53,-5.33 0.06,-1.93 -0.19,-3.93 0.14,-5.82 1.59,1.19 2.43,2.41 3.76,3.09 -0.51,-2.95 -1.92,-4.57 -2.91,-6.86 1.56,0.48 1.48,0.8 2.7,1.26l-0.64 -2.74c5.3,0.8 6.13,2.44 9.02,3.16 -1.01,-3.5 -2.74,-7.52 -4.05,-10.74l3.46 5.71 -1.81 -7.06c3.44,0.79 6.98,3.57 11.16,4.11 -0.9,-2.28 -10.44,-12.74 -11.42,-16.23 2.27,0.48 9.62,3.28 11.33,2.36 -1.18,-1.2 -1.53,-1.23 -2.6,-2.52 -0.89,-1.07 -1.57,-1.73 -2.4,-2.79 -3.9,-5 -5.06,-7.12 -8.35,-12.07 -1.27,-1.92 -2.66,-4.37 -5.92,-3.99 0.49,0.96 4.48,4.07 6.63,8.32 -0.08,-0.06 -0.17,-0.14 -0.22,-0.19l-2.27 -2.7c-5.94,-7.9 -5.15,-4.77 -7.53,-7.06 0.38,1.73 4.03,5.14 4.81,7.04 -2.2,-0.88 -5.93,-4.15 -8.58,-4.72 1.17,0.73 1.75,1.53 2.83,2.47 2.39,2.09 7.27,5.27 8.51,7.15 -2.88,-0.38 -7.53,-3.69 -10.1,-4.78 1.39,2.42 7.24,7.66 10.06,13.06 -1.37,-1 -8.41,-8.85 -11.3,-10.6 1.28,1.15 2.28,2.5 3.51,3.84 1.22,1.33 2.64,2.52 3.71,3.89 2.27,2.9 4.99,4.73 6.13,8.75 -1.88,-1.16 -6.17,-5.5 -8.99,-6.56 0.83,1.25 1.95,2.02 2.97,3.23 2.76,3.28 4.67,7.28 6.34,11.26 -2.51,-3.86 -4.86,-8.42 -9.39,-11.68 -1.27,-0.91 -2.75,-1.85 -3.94,-2.64 1.98,2.63 4.34,3.95 5.29,8.15 -2.52,-1.34 -6.02,-5.67 -9.48,-7.2 0.79,1.06 1.86,2.15 2.82,3.2 1.92,2.1 6.99,8.55 7.47,11.03 -1.1,-0.97 -2.13,-2.53 -3.34,-3.75 -1.16,-1.16 -2.23,-2.41 -3.59,-3.43 1.13,2.34 3.36,4.27 5.03,5.88 -1.41,-0.71 -0.5,-1.02 -2.84,-1.79 0.61,2.23 2.32,4.24 2.52,6.35 -2.02,-1.92 -8.46,-8.07 -10.3,-8.66 0.73,1.41 1.85,2.68 2.78,4.25 2.23,3.76 5.66,10.33 6.17,14.41 -1.03,-2.46 -4.25,-8.16 -6.31,-9.39l1.4 3.77c-0.48,-1.06 -6.4,-8.66 -7.76,-9.79 1.13,3.01 5.62,8.89 6.26,14.23l-1.04 -1.24c-0.23,-0.33 -0.38,-0.58 -0.7,-1.02 -1.97,-2.69 -4.42,-4.62 -4.75,-5.3 0.13,0.84 1.74,5.43 2.2,6.78 0.52,1.53 0.97,3.03 1.46,4.52 -1.33,-3.22 -3.23,-6.27 -4.79,-8.77 -1.09,-1.96 -6.07,-8.44 -7.57,-9.25 0.87,1.95 2.01,3.17 2.96,5.22 2.49,5.34 5.27,13.41 5.14,19.51l-1.87 -3.2c0.06,5.95 2.44,5.17 1.66,16.7 -0.02,-0.55 -0.06,-1.07 -0.1,-1.53 -0.36,-4.23 -4,-20.54 -7.71,-22.95l1.07 4.85c-1.14,-0.92 -3.7,-5.16 -5.4,-6.3 0.31,1.55 0.96,3.01 1.32,4.72 0.37,1.72 0.49,3.45 0.78,5.11l2.26 9.45c0.76,-0.98 0.67,-2.2 1.1,-3.22 0.21,2.73 -0.26,9.33 -2.33,11.12 -1.38,1.2 -0.17,1.07 -1.58,2.78l-0.28 -3.28 -2.28 6.11c-0.24,-0.4 -0.17,-0.12 -0.28,-0.83 -0.17,-1.15 0.78,-4.2 1.05,-5.4 2.38,-10.38 3.3,-10.02 0.2,-18.5 -0.05,0.08 -0.1,0.19 -0.12,0.25l-0.24 0.84c-0.02,0.12 0,1.17 -0,1.39 -1.74,-2.31 -2.6,-5.2 -4.39,-7.52l1.12 9.13 -1.48 -1.85c-0.07,0.1 -0.12,0.23 -0.16,0.32l-0.34 0.89c-0.01,0.05 -0.05,0.8 -0.06,0.9 -1.45,-2.35 -3.04,-4.71 -4.59,-6.99l0.37 10.07c-0.24,-0.29 -0.23,-0.25 -0.48,-0.74l-1.24 -3.81c-0.25,7.04 -0.55,6.77 1.06,13.74l1.45 -5c0.1,6.13 0.34,8.85 -1.57,14.75 -1.37,4.23 -2.84,8.58 -4.54,12.68 -0.04,-0.06 -0.08,-0.17 -0.09,-0.21 -0.37,-1.34 -0.04,-3.11 -0.1,-5.04l-2.2 4.47 1.3 -9.14c-0.64,1.39 -1.78,4.99 -2.27,6.5 0.01,-0.17 4.59,-21.43 4.71,-21.7 0.7,1.94 0.53,4.56 0.83,6.8 0.99,-2.59 1.54,-8.31 0.66,-11.08 -0.49,-1.53 -2.83,-7.47 -3.53,-8.39 -0.26,0.9 -0.36,5.34 -0.54,6.77 -0.28,2.34 -0.49,4.18 -1.08,6.42l-0.9 -4.32c-0.36,1.25 -0.5,2.62 -0.53,4.2 -0.16,0.01 -0.31,0.02 -0.44,0.02 -0.37,-2.07 -1.39,-3.28 -2.07,-7.13 -1.47,2.28 -2.8,10.54 -2.69,13.88 0.7,-2.34 0.64,-5.34 1.77,-7.55l-0.17 10.72c-0.74,1.62 -0.87,4.66 -1.35,6.56 -1.08,4.29 -4.27,13.3 -6.56,16.29 0.45,-4.79 2.71,-10.1 2.35,-15.52 -1.25,4.01 -3.04,9.85 -5.14,12.79 0.01,-9.47 3.26,-19.15 2.6,-24.09 0.03,3.93 -5.14,16.32 -6.71,23.74zm27.12 -10.54c0.25,-8.72 3.93,-15.89 4.74,-23.55 0.06,0.08 0.15,0.12 0.17,0.25l0.59 0.75c0.16,-0.89 0.29,-2.94 0.93,-3.6 1.46,4.93 1.1,11.24 -0.21,16.02 -0.63,2.3 -1.34,4.76 -2.23,6.78 -0.7,1.6 -1.91,5.25 -2.8,6.36l0.82 -5.37c-0.54,0.55 -0.44,0.57 -0.77,1.05l-1.23 1.31z"/>
  <path class="fil1 str0" d="M126.51 116.14c-0.43,-1.33 -0.32,-8.44 -0,-15.96l0.01 -0c0.32,7.52 0.43,14.64 -0,15.96zm0 0c1.49,-2.54 6.4,-19.77 9.31,-24.35 2.38,1.06 3.84,9.44 5.54,11.05 3.46,-3.92 6.82,-15.29 4.43,-18.63 -0.55,2.11 -1.73,3.58 -2.64,5.07 -0.88,-1.47 0.82,-7.43 0.56,-10.95l-4 5.38c0.15,-3.44 1.81,-7.78 0.97,-9.09l-3.88 6.63 1.16 -10.42 -1.71 2.56c-1.16,2.01 -2.95,5.89 -4.17,7.15 -0.03,-5.5 4.76,-12.05 4.97,-13.59 -0.16,0.5 -2.81,4.07 -3.57,5.56 0.51,-4.89 8.02,-12.99 8.66,-14.43 -2.41,1.04 -7.12,7.14 -8.93,9.84 -2.21,3.3 -4.64,8.43 -5.42,13.22 -0.36,2.23 -0.93,10.71 -1.28,18.78l-0.01 -0c-0.34,-8.07 -0.91,-16.54 -1.28,-18.78 -0.78,-4.79 -3.22,-9.92 -5.42,-13.22 -1.81,-2.71 -6.51,-8.8 -8.93,-9.84 0.64,1.44 8.15,9.54 8.66,14.43 -0.75,-1.49 -3.41,-5.06 -3.57,-5.56 0.21,1.54 5,8.09 4.97,13.59 -1.22,-1.26 -3.01,-5.14 -4.17,-7.15l-1.71 -2.56 1.16 10.42 -3.88 -6.63c-0.84,1.31 0.82,5.65 0.97,9.09l-4 -5.38c-0.26,3.52 1.44,9.48 0.56,10.95 -0.91,-1.5 -2.09,-2.96 -2.64,-5.07 -2.39,3.34 0.97,14.71 4.43,18.63 1.7,-1.61 3.15,-9.99 5.54,-11.05 2.91,4.58 7.82,21.81 9.31,24.35z"/>
  <path class="fil1 str0" d="M151.97 111.82c-4.56,-0.13 -8.45,11.81 -8.64,17.41l5.9 -7.92c1.21,-2.1 3.72,-7.13 2.74,-9.49z"/>
  <path class="fil1 str0" d="M109.68 129.23c-0.19,-5.59 -4.08,-17.53 -8.64,-17.41 -0.98,2.36 1.53,7.39 2.74,9.49l5.9 7.92z"/>
  <path class="fil1 str0" d="M106.24 138.79c-0.84,-5.07 -3.2,-8.85 -6.73,-10.59 0.37,1.79 1.59,4.57 2.5,5.95 0.88,1.33 2.83,3.88 4.23,4.64z"/>
  <path class="fil1 str0" d="M153.5 128.2c-3.53,1.73 -5.89,5.51 -6.73,10.59 1.39,-0.76 3.34,-3.31 4.23,-4.64 0.92,-1.38 2.13,-4.16 2.5,-5.95z"/>
  <path class="fil1 str0" d="M208.27 102.42c1.26,1.12 9.81,6.04 11.03,7.53 -2.2,-0.54 -3.58,-1.79 -6.02,-2.1 0.71,0.89 1.58,1.77 2.39,2.75l-5.75 -1.23c4.35,2.86 14.05,6.74 15.72,9.36 -3.35,-0.71 -8.66,-4.12 -11.55,-5.18 2.53,1.57 4.97,3.19 7.15,5.14l-5.15 -1.77c2.48,2.4 10.85,5.27 12.44,7.2 -4.77,-0.75 -8.26,-4 -11.92,-5.01 0.92,0.26 7.72,4.81 12.17,6.53 2.61,1.01 3.24,2.94 4.6,5.09 0.63,1 3.51,4.44 3.76,5.43l-10.01 -4.98c0.92,1.48 2.36,2.08 3.7,3.1 -1.22,0.34 -4.92,-1.89 -7.1,-2.18l11.2 7.82c1.46,0.81 3,1.28 4.06,2.26 -4.79,-0.59 -8.9,-4.86 -12.6,-6.28 1.43,1.86 7.55,6.07 10.28,7.81 3.08,1.97 8.69,4.68 13.62,4.27 -1.1,-1.46 -3.05,-3.08 -4.46,-4.77 -2.1,-2.52 -10.51,-13.44 -11.61,-15.96l3.67 -0.24c0.06,-0.19 0.13,-0.25 0.16,-0.26 -0.05,-0.02 -0.15,-0.11 -0.34,-0.35 -0.55,-0.71 -9.76,-6.11 -15.52,-18.01 -7.59,-15.67 -6.76,-7.79 -3.46,-17.55l5.95 -20.35c2.91,-10.94 4.6,-17.67 5.32,-29.69 0.33,-5.61 -0.17,-11.61 -0.15,-17.3 0.04,-6.01 -1.57,-14.03 -3.94,-19.49 -5.08,-11.7 -9.97,6.27 -18.27,13.1l-3.96 3.98c-4.44,4.78 -4.51,3.74 -8.3,7.27l-12.25 10.94c-2.4,2.07 -1.61,1.83 -5.44,2.5 -1.73,0.3 -4.76,0.99 -6.48,0.89l1.99 -1.86c-3.84,0.61 -4.78,1.44 -9.67,1.61 0.2,-0.33 6.44,-4.45 7.21,-5.06 -1.8,0.23 -4.66,1.31 -6.82,1.8 -2.45,0.56 -5.11,0.92 -7.85,1.01 1.23,-2.39 3.38,-4.3 4.59,-6.97 -2.84,0.88 -6.25,6.86 -10.62,7.3 0.78,-2.09 2.98,-4.07 4.07,-5.6 -2.96,0.93 -9.69,6.21 -11.01,7.97 1.33,-0.27 1.45,-0.53 2.52,-1 3.16,-1.38 0.96,0.79 4.65,-0.13 0.92,-0.23 1.95,-0.42 3.01,-0.5l-0.63 0.71c-0.93,0.92 -2.78,1.81 -3.51,2.79 2.5,-0.6 4.97,-2.11 7.82,-2.33 -0.57,0.7 -0.19,0.3 -0.99,0.85l-2.39 1.58c3.38,-0.06 6.48,-1.3 10.98,-0.99 -1.15,1.26 -5.42,3.02 -7.12,4.02 2.7,0.14 11.54,-2.78 15.31,-3.38 -1.71,2.24 -6.82,3.39 -8.86,5.34l3.29 -0.3c-3.85,3.42 -6.09,11.11 -3.99,18.23 3.72,12.6 15.49,15.79 26.76,20.97 4.62,2.13 16.19,2.9 18.82,4.63 -5.96,2.36 -15.17,-1.02 -19.4,-1.85 0.91,1.08 2.32,1.41 4.46,2.33 6.28,2.7 12.24,2.64 15.08,4.28 -3.05,0.24 -6.25,0.03 -9.1,-0.53l-7.47 -1.73c7.61,3.16 18.26,4.68 21.29,6.96l-5.34 -0.42zm12.84 -29.27c-1.35,4.18 -5.85,17.24 -8.2,19.23 0.22,-6.39 10.32,-29.88 10.05,-48.85l-4.66 16.33c0.11,-3.02 1.18,-6.2 1.88,-9.12 0.71,-2.97 1.5,-6.37 1.94,-9.55 1.02,-7.41 0.36,-14.52 0.75,-21.95 0.92,1.18 1.43,5.71 1.5,7.01 0.56,9.31 -0.81,21.13 -0.79,24.29 0.08,-1.8 1.16,-9.01 1.28,-10.57 0.6,-7.78 -0.89,-30.53 -3.2,-34.87 -1.55,3.42 -2.76,6.72 -4.66,9.94 -1.24,2.1 -4.38,7.37 -5.08,9.5l8.7 -9.66c0.79,-1.22 0.43,-0.94 1.38,-1.56 -0.07,1.47 -2.25,7.56 -3.92,8.84 0.28,-1.82 1.02,-2.19 1.18,-4.25l-12.03 15.4c-1.47,1.9 -10.44,15.4 -10.96,16.95l3.44 -0.04c-1.72,1.56 -5.77,2.08 -7.89,6.52 1.43,-0.11 2.81,-0.43 4.14,-0.78 0.53,-0.14 1.39,-0.44 1.94,-0.55 2.05,-0.39 1.43,-0 1.47,0.01 0.09,0.02 0.21,0.09 0.28,0.11 0.07,0.02 0.19,0.07 0.27,0.13 -1.23,1 -4.71,1.68 -6.99,2.45 -0.18,0.06 -0.94,0.32 -1.03,0.36 -0.93,0.42 -0.43,0.06 -1.11,0.71l7.44 -0.22c-1.63,3.43 -9.6,4.79 -11.45,7.62 2,-0.03 5.46,-0.62 7,0.16 -2.64,1.69 -6.88,1.98 -9.21,3.79 3.53,0.4 6.33,0.25 9.67,1.09 -1.33,2.27 -8.7,3.27 -10.94,4.47 2.28,1.59 6.44,1.22 9.43,1.59 -2.78,2.04 -6.95,4.16 -11.46,3.43 -3.44,-0.56 -8.41,-3.29 -10.83,-5.02 2.18,-2.58 25.37,-34.48 26.26,-37.2l-4.02 3.44c-1.05,1 -2.28,2.35 -3.6,3.66 -2.49,2.46 -4.95,4.62 -7.36,7.17 -0.38,0.4 -12.82,13.79 -13.55,15.16 -0.24,-2.71 -0.12,-5.76 0.46,-8.14l-1.53 -0.69c0.63,-7.87 9.94,-11.85 16.98,-17.79 1.21,-1.02 2.49,-2 3.77,-3.14l15.2 -12.83c2.39,-2.47 4.3,-4.71 6.78,-7.06 2.29,-2.16 6.97,-8.5 9.15,-11.6 0.86,-1.22 1.93,-3.53 3.3,-3.95 3.43,4.09 4.76,16.57 4.93,22.13 0.44,15.06 -1.57,33.87 -6.13,47.93zm-0.55 -38.13c0.08,-0.57 0.16,-1.15 0.24,-1.72 -0.05,0.57 -0.13,1.14 -0.24,1.72zm0 0c-0.71,4.96 -1.63,10.05 -2.34,15.57 -0.68,5.3 -1.35,13.01 -2.77,17.95 -2.21,7.67 -5.89,14.57 -12.72,18.06 -1.22,0.62 -2.2,1.37 -3.63,0.94 -0.88,-0.27 -2.79,-1.13 -3.35,-1.68 5.14,-2.58 4.43,-1.19 10.9,-5.88 -2.06,0.43 -6.46,3 -9.43,1.3 1.61,-0.92 4.01,-1.64 5.83,-2.65 2.66,-1.48 3.24,-2.76 4.52,-3.77 -2.14,0.67 -6.01,1.37 -8.13,-0.53 3.18,-1.33 7.34,-2.75 8.75,-5.17 -1.4,0.35 -3.37,1.42 -4.84,0.7 1.99,-1.67 4.31,-2.94 5.54,-5.26 -3.08,0.94 -2.75,1.23 -6.5,0.91 0.69,-1.09 3.63,-2.01 7.03,-4.85 -2.21,-0.03 -6.03,0.13 -7.39,-1.18 2.32,-1.26 5.15,-1.76 7.09,-3.46 -1.87,0.25 -5.11,1.74 -6.8,1.11 2.03,-1.21 5.75,-2.4 6.92,-3.59 -1.96,0.22 -5.41,1.94 -7.22,0.76 3.25,-2.36 7.01,-2.15 12.21,-7.39 2.48,-2.51 5.43,-7.19 6.34,-11.87z"/>
  <path class="fil1 str0" d="M63.09 88.75c11.27,-5.19 23.04,-8.38 26.76,-20.97 2.1,-7.12 -0.14,-14.81 -3.99,-18.23l3.29 0.3c-2.04,-1.95 -7.14,-3.09 -8.86,-5.34 3.78,0.6 12.61,3.53 15.31,3.38 -1.7,-1 -5.97,-2.76 -7.12,-4.02 4.5,-0.31 7.59,0.93 10.98,0.99l-2.39 -1.58c-0.8,-0.55 -0.42,-0.15 -0.99,-0.85 2.85,0.23 5.32,1.73 7.82,2.33 -0.73,-0.98 -2.58,-1.87 -3.51,-2.79l-0.63 -0.71c1.07,0.07 2.09,0.27 3.01,0.5 3.69,0.92 1.49,-1.25 4.65,0.13 1.07,0.47 1.19,0.73 2.52,1 -1.33,-1.76 -8.05,-7.04 -11.01,-7.97 1.09,1.53 3.29,3.51 4.07,5.6 -4.37,-0.44 -7.78,-6.41 -10.62,-7.3 1.21,2.67 3.36,4.58 4.59,6.97 -2.74,-0.09 -5.4,-0.46 -7.85,-1.01 -2.16,-0.49 -5.02,-1.57 -6.82,-1.8 0.77,0.61 7.01,4.73 7.21,5.06 -4.89,-0.17 -5.82,-1 -9.67,-1.61l1.99 1.86c-1.72,0.09 -4.75,-0.59 -6.48,-0.89 -3.83,-0.67 -3.04,-0.43 -5.44,-2.5l-12.25 -10.94c-3.79,-3.53 -3.86,-2.49 -8.3,-7.27l-3.96 -3.98c-8.31,-6.83 -13.19,-24.8 -18.27,-13.1 -2.37,5.46 -3.98,13.48 -3.94,19.49 0.02,5.7 -0.48,11.69 -0.15,17.3 0.72,12.02 2.41,18.76 5.32,29.69l5.95 20.35c3.3,9.76 4.13,1.88 -3.46,17.55 -5.76,11.9 -14.98,17.3 -15.52,18.01 -0.19,0.25 -0.3,0.33 -0.34,0.35 0.04,0.01 0.1,0.07 0.16,0.26l3.67 0.24c-1.1,2.52 -9.51,13.43 -11.61,15.96 -1.41,1.69 -3.36,3.31 -4.46,4.77 4.92,0.4 10.53,-2.3 13.62,-4.27 2.73,-1.75 8.85,-5.95 10.28,-7.81 -3.7,1.42 -7.81,5.69 -12.6,6.28 1.06,-0.98 2.6,-1.45 4.06,-2.26l11.2 -7.82c-2.18,0.3 -5.88,2.52 -7.1,2.18 1.34,-1.03 2.78,-1.62 3.7,-3.1l-10.01 4.98c0.25,-0.99 3.12,-4.43 3.76,-5.43 1.37,-2.15 1.99,-4.08 4.6,-5.09 4.46,-1.72 11.25,-6.26 12.17,-6.53 -3.66,1.01 -7.14,4.26 -11.92,5.01 1.59,-1.93 9.96,-4.8 12.44,-7.2l-5.15 1.77c2.18,-1.95 4.62,-3.57 7.15,-5.14 -2.89,1.06 -8.2,4.47 -11.55,5.18 1.67,-2.63 11.37,-6.51 15.72,-9.36l-5.75 1.23c0.8,-0.98 1.68,-1.85 2.39,-2.75 -2.45,0.32 -3.83,1.56 -6.02,2.1 1.22,-1.49 9.77,-6.41 11.03,-7.53l-5.34 0.42c3.03,-2.28 13.69,-3.8 21.29,-6.96l-7.47 1.73c-2.86,0.56 -6.05,0.76 -9.1,0.53 2.84,-1.64 8.8,-1.58 15.08,-4.28 2.14,-0.92 3.55,-1.25 4.46,-2.33 -4.23,0.83 -13.44,4.22 -19.4,1.85 2.63,-1.72 14.2,-2.5 18.82,-4.63zm8.64 -7.65c-4.51,0.73 -8.68,-1.39 -11.46,-3.43 2.99,-0.37 7.15,0 9.43,-1.59 -2.24,-1.2 -9.6,-2.2 -10.94,-4.47 3.34,-0.84 6.14,-0.68 9.67,-1.09 -2.33,-1.81 -6.56,-2.1 -9.21,-3.79 1.54,-0.78 5,-0.18 7,-0.16 -1.85,-2.83 -9.81,-4.19 -11.45,-7.62l7.44 0.22c-0.68,-0.66 -0.18,-0.29 -1.11,-0.71 -0.09,-0.04 -0.85,-0.3 -1.03,-0.36 -2.28,-0.76 -5.76,-1.45 -6.99,-2.45 0.08,-0.06 0.2,-0.1 0.27,-0.13 0.07,-0.02 0.19,-0.09 0.28,-0.11 0.04,-0.01 -0.59,-0.4 1.47,-0.01 0.55,0.1 1.41,0.4 1.94,0.55 1.33,0.35 2.71,0.67 4.14,0.78 -2.11,-4.44 -6.17,-4.95 -7.89,-6.52l3.44 0.04c-0.52,-1.55 -9.49,-15.05 -10.96,-16.95l-12.03 -15.4c0.16,2.06 0.91,2.42 1.18,4.25 -1.67,-1.28 -3.85,-7.37 -3.92,-8.84 0.96,0.62 0.59,0.34 1.38,1.56l8.7 9.66c-0.69,-2.12 -3.84,-7.4 -5.08,-9.5 -1.9,-3.22 -3.1,-6.53 -4.66,-9.94 -2.31,4.34 -3.8,27.09 -3.2,34.87 0.12,1.56 1.19,8.77 1.28,10.57 0.01,-3.16 -1.35,-14.97 -0.79,-24.29 0.08,-1.3 0.58,-5.83 1.5,-7.01 0.39,7.43 -0.26,14.54 0.75,21.95 0.44,3.19 1.23,6.58 1.94,9.55 0.7,2.92 1.77,6.1 1.88,9.12l-4.66 -16.33c-0.26,18.97 9.84,42.46 10.05,48.85 -2.35,-1.99 -6.85,-15.06 -8.2,-19.23 -4.56,-14.05 -6.57,-32.87 -6.13,-47.93 0.16,-5.56 1.5,-18.04 4.93,-22.13 1.38,0.42 2.44,2.73 3.3,3.95 2.18,3.1 6.87,9.44 9.15,11.6 2.48,2.35 4.39,4.59 6.78,7.06l15.2 12.83c1.28,1.14 2.57,2.12 3.77,3.14 7.04,5.95 16.36,9.92 16.98,17.79l-1.53 0.69c0.58,2.38 0.7,5.44 0.46,8.14 -0.73,-1.36 -13.17,-14.75 -13.55,-15.16 -2.41,-2.55 -4.87,-4.7 -7.36,-7.17 -1.33,-1.31 -2.55,-2.66 -3.6,-3.66l-4.02 -3.44c0.89,2.72 24.08,34.62 26.26,37.2 -2.42,1.74 -7.38,4.47 -10.83,5.02zm-39.27 -46.08c-0.11,-0.57 -0.19,-1.15 -0.24,-1.72 0.08,0.57 0.16,1.14 0.24,1.72zm18.24 22.1c-1.69,0.63 -4.93,-0.86 -6.8,-1.11 1.94,1.71 4.77,2.2 7.09,3.46 -1.36,1.31 -5.19,1.15 -7.39,1.18 3.4,2.84 6.34,3.76 7.03,4.85 -3.74,0.32 -3.42,0.03 -6.5,-0.91 1.23,2.32 3.55,3.6 5.54,5.26 -1.47,0.72 -3.44,-0.35 -4.84,-0.7 1.41,2.42 5.57,3.84 8.75,5.17 -2.12,1.9 -5.99,1.2 -8.13,0.53 1.28,1 1.86,2.29 4.52,3.77 1.82,1.01 4.22,1.74 5.83,2.65 -2.96,1.7 -7.36,-0.87 -9.43,-1.3 6.48,4.69 5.76,3.31 10.9,5.88 -0.57,0.55 -2.47,1.41 -3.35,1.68 -1.43,0.43 -2.41,-0.31 -3.63,-0.94 -6.82,-3.48 -10.5,-10.38 -12.72,-18.06 -1.42,-4.94 -2.09,-12.65 -2.77,-17.95 -0.71,-5.51 -1.63,-10.61 -2.34,-15.57 0.91,4.67 3.86,9.36 6.34,11.87 5.19,5.24 8.95,5.03 12.21,7.39 -1.82,1.19 -5.26,-0.54 -7.22,-0.76 1.17,1.19 4.89,2.38 6.92,3.59z"/>
  <path class="fil1 str0" d="M132.67 53.21c-3.32,6.23 -6.15,20.58 -5.33,26.85 0.78,-5.21 2.36,-10.07 4.84,-13.86 2.96,-4.53 8.23,-9.45 8.68,-10.11 -3.95,1.02 -6.51,4.38 -9.59,5.53 0.39,-3.68 1.9,-6.71 2.47,-9.9l-1.07 1.49z"/>
  <path class="fil1 str0" d="M125.67 80.06c0.82,-6.27 -2,-20.61 -5.33,-26.85l-1.07 -1.49c0.58,3.19 2.09,6.22 2.47,9.9 -3.08,-1.14 -5.64,-4.51 -9.59,-5.53 0.45,0.65 5.72,5.58 8.68,10.11 2.48,3.79 4.06,8.65 4.84,13.86z"/>
  <path class="fil1 str0" d="M141.64 178.65c-6.07,0.94 -9.76,6.19 -12.26,11.39l-2.56 5.51c-0.07,-0.28 -0.17,-0.6 -0.31,-0.95 -0.13,0.35 -0.24,0.66 -0.31,0.95l-2.56 -5.51c-2.51,-5.2 -6.19,-10.45 -12.26,-11.39 2.13,1.05 3.96,3.36 6.19,5.68 0.7,0.72 1.11,1.38 1.86,2.31l5.16 7.31c0.33,0.56 0.43,0.9 0.69,1.36 0.13,0.23 0.25,0.46 0.43,0.67 0.19,0.22 0.24,0.31 0.25,0.34 0.04,0.02 0.15,0.08 0.4,0.25 0.05,-0.11 0.11,-0.23 0.16,-0.34 0.05,0.11 0.11,0.23 0.16,0.34 0.25,-0.17 0.36,-0.23 0.4,-0.25 0.01,-0.03 0.06,-0.11 0.25,-0.34 0.18,-0.21 0.3,-0.44 0.43,-0.67 0.26,-0.46 0.36,-0.8 0.69,-1.36l5.16 -7.31c0.75,-0.92 1.16,-1.58 1.86,-2.31 2.23,-2.32 4.07,-4.64 6.19,-5.68z"/>
  <path class="fil1 str0" d="M131.56 182.53c2.2,-2.67 7.98,-7.4 9.89,-7.28 -1.58,-0.19 -3.9,0.92 -5.28,1.55 -0.04,-0.06 -0.07,-0.16 -0.08,-0.19 -0.01,-0.03 -0.06,-0.15 -0.08,-0.19l-0.54 -0.97c1.44,-0.34 2.89,-1.72 5.99,-3.1 2.14,-0.95 4.29,-1.76 6.9,-2.16 -6.68,-4.04 -17.73,5.51 -18.97,11.24 1.13,-1.47 3.29,-4.3 5.28,-4.88 -0.06,0.1 -0.15,0.2 -0.2,0.27 -2.23,2.67 -4.31,4.2 -5.59,8.94l2.69 -3.24z"/>
  <path class="fil1 str0" d="M123.62 181.44c-1.24,-5.73 -12.28,-15.27 -18.97,-11.24 2.6,0.4 4.75,1.21 6.9,2.16 3.11,1.37 4.56,2.75 5.99,3.1l-0.54 0.97c-0.02,0.04 -0.06,0.16 -0.08,0.19 -0.01,0.03 -0.04,0.13 -0.08,0.19 -1.39,-0.63 -3.7,-1.74 -5.28,-1.55 1.9,-0.12 7.69,4.61 9.89,7.28l2.69 3.24c-1.28,-4.74 -3.36,-6.28 -5.59,-8.94 -0.06,-0.07 -0.15,-0.17 -0.2,-0.27 1.99,0.58 4.15,3.41 5.28,4.88z"/>
  <path class="fil2 str0" d="M117.74 224.59c-0.95,-0.64 -3.62,-1.27 -5.02,-1.55 0.38,2.37 1.48,5.6 3.84,5.9 1.11,-1.17 1.38,-2.2 1.17,-4.36z"/>
  <path class="fil2 str0" d="M135.27 224.59c-0.21,2.16 0.07,3.18 1.17,4.36 2.36,-0.3 3.46,-3.53 3.84,-5.9 -1.4,0.28 -4.07,0.91 -5.02,1.55z"/>
  <path class="fil2 str0" d="M152.62 144.72c4.51,1.29 6.35,2.96 10.35,-0.67 2.64,-2.4 3.92,-5.52 3.46,-10.34l-4.15 2.01c-0.32,4.99 -1.81,6.46 -6.4,4.73 -0.92,1.15 -2.61,2.97 -3.26,4.27z"/>
  <path class="fil2 str0" d="M100.39 144.72c-0.65,-1.3 -2.34,-3.12 -3.26,-4.27 -4.59,1.73 -6.08,0.26 -6.4,-4.73l-4.15 -2.01c-0.46,4.82 0.82,7.94 3.46,10.34 4,3.64 5.84,1.97 10.35,0.67z"/>
 </g>
</svg>
